<svg width="24" height="24" viewBox="0 0 24 24" fill="none" xmlns="http://www.w3.org/2000/svg">
<g clip-path="url(#clip0_1_7718)">
<path d="M6 17.5H5.79289L5.64645 17.6464L2.5 20.7929V4C2.5 3.17614 3.17614 2.5 4 2.5H20C20.8239 2.5 21.5 3.17614 21.5 4V16C21.5 16.8239 20.8239 17.5 20 17.5H6ZM3.5 18V19.2071L4.35355 18.3536L6.20711 16.5H19C19.8261 16.5 20.5 15.8261 20.5 15V5C20.5 4.17386 19.8261 3.5 19 3.5H5C4.17386 3.5 3.5 4.17386 3.5 5V18Z" fill="#657286" stroke="#4959B6"/>
</g>
<defs>
<clipPath id="clip0_1_7718">
<rect width="24" height="24" fill="white"/>
</clipPath>
</defs>
</svg>
