<svg width="589" height="162" viewBox="0 0 589 162" fill="none" xmlns="http://www.w3.org/2000/svg">
<g filter="url(#filter0_dd_1_7773)">
<rect x="3" y="2" width="583" height="156" rx="16" fill="white"/>
<path d="M24.502 35.098C23.5873 35.098 22.7473 34.8833 21.982 34.454C21.2167 34.0247 20.61 33.432 20.162 32.676C19.714 31.9107 19.49 31.0473 19.49 30.086C19.49 29.134 19.714 28.28 20.162 27.524C20.61 26.7587 21.2167 26.1613 21.982 25.732C22.7473 25.3027 23.5873 25.088 24.502 25.088C25.426 25.088 26.266 25.3027 27.022 25.732C27.7873 26.1613 28.3893 26.7587 28.828 27.524C29.276 28.28 29.5 29.134 29.5 30.086C29.5 31.0473 29.276 31.9107 28.828 32.676C28.3893 33.432 27.7873 34.0247 27.022 34.454C26.2567 34.8833 25.4167 35.098 24.502 35.098ZM24.502 33.348C25.09 33.348 25.608 33.2173 26.056 32.956C26.504 32.6853 26.854 32.3027 27.106 31.808C27.358 31.3133 27.484 30.7393 27.484 30.086C27.484 29.4327 27.358 28.8633 27.106 28.378C26.854 27.8833 26.504 27.5053 26.056 27.244C25.608 26.9827 25.09 26.852 24.502 26.852C23.914 26.852 23.3913 26.9827 22.934 27.244C22.486 27.5053 22.136 27.8833 21.884 28.378C21.632 28.8633 21.506 29.4327 21.506 30.086C21.506 30.7393 21.632 31.3133 21.884 31.808C22.136 32.3027 22.486 32.6853 22.934 32.956C23.3913 33.2173 23.914 33.348 24.502 33.348ZM33.9262 35.126C33.2915 35.126 32.7222 35.014 32.2182 34.79C31.7142 34.5567 31.3129 34.244 31.0142 33.852C30.7249 33.46 30.5662 33.026 30.5382 32.55H32.5122C32.5495 32.8487 32.6942 33.096 32.9462 33.292C33.2075 33.488 33.5295 33.586 33.9122 33.586C34.2855 33.586 34.5749 33.5113 34.7802 33.362C34.9949 33.2127 35.1022 33.0213 35.1022 32.788C35.1022 32.536 34.9715 32.3493 34.7102 32.228C34.4582 32.0973 34.0522 31.9573 33.4922 31.808C32.9135 31.668 32.4375 31.5233 32.0642 31.374C31.7002 31.2247 31.3829 30.996 31.1122 30.688C30.8509 30.38 30.7202 29.9647 30.7202 29.442C30.7202 29.0127 30.8415 28.6207 31.0842 28.266C31.3362 27.9113 31.6909 27.6313 32.1482 27.426C32.6149 27.2207 33.1609 27.118 33.7862 27.118C34.7102 27.118 35.4475 27.3513 35.9982 27.818C36.5489 28.2753 36.8522 28.896 36.9082 29.68H35.0322C35.0042 29.372 34.8735 29.1293 34.6402 28.952C34.4162 28.7653 34.1129 28.672 33.7302 28.672C33.3755 28.672 33.1002 28.7373 32.9042 28.868C32.7175 28.9987 32.6242 29.1807 32.6242 29.414C32.6242 29.6753 32.7549 29.876 33.0162 30.016C33.2775 30.1467 33.6835 30.282 34.2342 30.422C34.7942 30.562 35.2562 30.7067 35.6202 30.856C35.9842 31.0053 36.2969 31.2387 36.5582 31.556C36.8289 31.864 36.9689 32.2747 36.9782 32.788C36.9782 33.236 36.8522 33.6373 36.6002 33.992C36.3575 34.3467 36.0029 34.6267 35.5362 34.832C35.0789 35.028 34.5422 35.126 33.9262 35.126ZM43.1791 35L40.5471 31.696V35H38.5871V24.64H40.5471V30.534L43.1511 27.244H45.6991L42.2831 31.136L45.7271 35H43.1791ZM46.2589 31.094C46.2589 30.31 46.4129 29.6147 46.7209 29.008C47.0382 28.4013 47.4629 27.9347 47.9949 27.608C48.5362 27.2813 49.1382 27.118 49.8009 27.118C50.3795 27.118 50.8835 27.2347 51.3129 27.468C51.7515 27.7013 52.1015 27.9953 52.3629 28.35V27.244H54.3369V35H52.3629V33.866C52.1109 34.23 51.7609 34.5333 51.3129 34.776C50.8742 35.0093 50.3655 35.126 49.7869 35.126C49.1335 35.126 48.5362 34.958 47.9949 34.622C47.4629 34.286 47.0382 33.8147 46.7209 33.208C46.4129 32.592 46.2589 31.8873 46.2589 31.094ZM52.3629 31.122C52.3629 30.646 52.2695 30.24 52.0829 29.904C51.8962 29.5587 51.6442 29.2973 51.3269 29.12C51.0095 28.9333 50.6689 28.84 50.3049 28.84C49.9409 28.84 49.6049 28.9287 49.2969 29.106C48.9889 29.2833 48.7369 29.5447 48.5409 29.89C48.3542 30.226 48.2609 30.6273 48.2609 31.094C48.2609 31.5607 48.3542 31.9713 48.5409 32.326C48.7369 32.6713 48.9889 32.9373 49.2969 33.124C49.6142 33.3107 49.9502 33.404 50.3049 33.404C50.6689 33.404 51.0095 33.3153 51.3269 33.138C51.6442 32.9513 51.8962 32.69 52.0829 32.354C52.2695 32.0087 52.3629 31.598 52.3629 31.122ZM58.2112 28.448C58.4632 28.0373 58.7898 27.7153 59.1912 27.482C59.6018 27.2487 60.0685 27.132 60.5912 27.132V29.19H60.0732C59.4572 29.19 58.9905 29.3347 58.6732 29.624C58.3652 29.9133 58.2112 30.4173 58.2112 31.136V35H56.2512V27.244H58.2112V28.448ZM73.3533 25.228V35H71.3933V30.842H67.2073V35H65.2473V25.228H67.2073V29.246H71.3933V25.228H73.3533ZM74.7784 31.094C74.7784 30.31 74.9324 29.6147 75.2404 29.008C75.5577 28.4013 75.9824 27.9347 76.5144 27.608C77.0557 27.2813 77.6577 27.118 78.3204 27.118C78.8991 27.118 79.4031 27.2347 79.8324 27.468C80.2711 27.7013 80.6211 27.9953 80.8824 28.35V27.244H82.8564V35H80.8824V33.866C80.6304 34.23 80.2804 34.5333 79.8324 34.776C79.3937 35.0093 78.8851 35.126 78.3064 35.126C77.6531 35.126 77.0557 34.958 76.5144 34.622C75.9824 34.286 75.5577 33.8147 75.2404 33.208C74.9324 32.592 74.7784 31.8873 74.7784 31.094ZM80.8824 31.122C80.8824 30.646 80.7891 30.24 80.6024 29.904C80.4157 29.5587 80.1637 29.2973 79.8464 29.12C79.5291 28.9333 79.1884 28.84 78.8244 28.84C78.4604 28.84 78.1244 28.9287 77.8164 29.106C77.5084 29.2833 77.2564 29.5447 77.0604 29.89C76.8737 30.226 76.7804 30.6273 76.7804 31.094C76.7804 31.5607 76.8737 31.9713 77.0604 32.326C77.2564 32.6713 77.5084 32.9373 77.8164 33.124C78.1337 33.3107 78.4697 33.404 78.8244 33.404C79.1884 33.404 79.5291 33.3153 79.8464 33.138C80.1637 32.9513 80.4157 32.69 80.6024 32.354C80.7891 32.0087 80.8824 31.598 80.8824 31.122ZM89.0687 27.132C89.9927 27.132 90.7394 27.426 91.3087 28.014C91.878 28.5927 92.1627 29.4047 92.1627 30.45V35H90.2027V30.716C90.2027 30.1 90.0487 29.6287 89.7407 29.302C89.4327 28.966 89.0127 28.798 88.4807 28.798C87.9394 28.798 87.51 28.966 87.1927 29.302C86.8847 29.6287 86.7307 30.1 86.7307 30.716V35H84.7707V27.244H86.7307V28.21C86.992 27.874 87.3234 27.6127 87.7247 27.426C88.1354 27.23 88.5834 27.132 89.0687 27.132ZM96.9945 35.126C96.3599 35.126 95.7905 35.014 95.2865 34.79C94.7825 34.5567 94.3812 34.244 94.0825 33.852C93.7932 33.46 93.6345 33.026 93.6065 32.55H95.5805C95.6179 32.8487 95.7625 33.096 96.0145 33.292C96.2759 33.488 96.5979 33.586 96.9805 33.586C97.3539 33.586 97.6432 33.5113 97.8485 33.362C98.0632 33.2127 98.1705 33.0213 98.1705 32.788C98.1705 32.536 98.0399 32.3493 97.7785 32.228C97.5265 32.0973 97.1205 31.9573 96.5605 31.808C95.9819 31.668 95.5059 31.5233 95.1325 31.374C94.7685 31.2247 94.4512 30.996 94.1805 30.688C93.9192 30.38 93.7885 29.9647 93.7885 29.442C93.7885 29.0127 93.9099 28.6207 94.1525 28.266C94.4045 27.9113 94.7592 27.6313 95.2165 27.426C95.6832 27.2207 96.2292 27.118 96.8545 27.118C97.7785 27.118 98.5159 27.3513 99.0665 27.818C99.6172 28.2753 99.9205 28.896 99.9765 29.68H98.1005C98.0725 29.372 97.9419 29.1293 97.7085 28.952C97.4845 28.7653 97.1812 28.672 96.7985 28.672C96.4439 28.672 96.1685 28.7373 95.9725 28.868C95.7859 28.9987 95.6925 29.1807 95.6925 29.414C95.6925 29.6753 95.8232 29.876 96.0845 30.016C96.3459 30.1467 96.7519 30.282 97.3025 30.422C97.8625 30.562 98.3245 30.7067 98.6885 30.856C99.0525 31.0053 99.3652 31.2387 99.6265 31.556C99.8972 31.864 100.037 32.2747 100.047 32.788C100.047 33.236 99.9205 33.6373 99.6685 33.992C99.4259 34.3467 99.0712 34.6267 98.6045 34.832C98.1472 35.028 97.6105 35.126 96.9945 35.126ZM104.623 35.126C103.989 35.126 103.419 35.014 102.915 34.79C102.411 34.5567 102.01 34.244 101.711 33.852C101.422 33.46 101.263 33.026 101.235 32.55H103.209C103.247 32.8487 103.391 33.096 103.643 33.292C103.905 33.488 104.227 33.586 104.609 33.586C104.983 33.586 105.272 33.5113 105.477 33.362C105.692 33.2127 105.799 33.0213 105.799 32.788C105.799 32.536 105.669 32.3493 105.407 32.228C105.155 32.0973 104.749 31.9573 104.189 31.808C103.611 31.668 103.135 31.5233 102.761 31.374C102.397 31.2247 102.08 30.996 101.809 30.688C101.548 30.38 101.417 29.9647 101.417 29.442C101.417 29.0127 101.539 28.6207 101.781 28.266C102.033 27.9113 102.388 27.6313 102.845 27.426C103.312 27.2207 103.858 27.118 104.483 27.118C105.407 27.118 106.145 27.3513 106.695 27.818C107.246 28.2753 107.549 28.896 107.605 29.68H105.729C105.701 29.372 105.571 29.1293 105.337 28.952C105.113 28.7653 104.81 28.672 104.427 28.672C104.073 28.672 103.797 28.7373 103.601 28.868C103.415 28.9987 103.321 29.1807 103.321 29.414C103.321 29.6753 103.452 29.876 103.713 30.016C103.975 30.1467 104.381 30.282 104.931 30.422C105.491 30.562 105.953 30.7067 106.317 30.856C106.681 31.0053 106.994 31.2387 107.255 31.556C107.526 31.864 107.666 32.2747 107.675 32.788C107.675 33.236 107.549 33.6373 107.297 33.992C107.055 34.3467 106.7 34.6267 106.233 34.832C105.776 35.028 105.239 35.126 104.623 35.126ZM112.728 35.126C111.982 35.126 111.31 34.9627 110.712 34.636C110.115 34.3 109.644 33.8287 109.298 33.222C108.962 32.6153 108.794 31.9153 108.794 31.122C108.794 30.3287 108.967 29.6287 109.312 29.022C109.667 28.4153 110.148 27.9487 110.754 27.622C111.361 27.286 112.038 27.118 112.784 27.118C113.531 27.118 114.208 27.286 114.814 27.622C115.421 27.9487 115.897 28.4153 116.242 29.022C116.597 29.6287 116.774 30.3287 116.774 31.122C116.774 31.9153 116.592 32.6153 116.228 33.222C115.874 33.8287 115.388 34.3 114.772 34.636C114.166 34.9627 113.484 35.126 112.728 35.126ZM112.728 33.418C113.083 33.418 113.414 33.334 113.722 33.166C114.04 32.9887 114.292 32.7273 114.478 32.382C114.665 32.0367 114.758 31.6167 114.758 31.122C114.758 30.3847 114.562 29.82 114.17 29.428C113.788 29.0267 113.316 28.826 112.756 28.826C112.196 28.826 111.725 29.0267 111.342 29.428C110.969 29.82 110.782 30.3847 110.782 31.122C110.782 31.8593 110.964 32.4287 111.328 32.83C111.702 33.222 112.168 33.418 112.728 33.418ZM122.51 27.132C123.434 27.132 124.181 27.426 124.75 28.014C125.319 28.5927 125.604 29.4047 125.604 30.45V35H123.644V30.716C123.644 30.1 123.49 29.6287 123.182 29.302C122.874 28.966 122.454 28.798 121.922 28.798C121.381 28.798 120.951 28.966 120.634 29.302C120.326 29.6287 120.172 30.1 120.172 30.716V35H118.212V27.244H120.172V28.21C120.433 27.874 120.765 27.6127 121.166 27.426C121.577 27.23 122.025 27.132 122.51 27.132Z" fill="#283449"/>
<path d="M504.456 26.32V25.324H506.712V34H505.608V26.32H504.456ZM515.495 34.108C514.991 34.108 514.539 34.024 514.139 33.856C513.739 33.68 513.423 33.44 513.191 33.136C512.959 32.824 512.831 32.468 512.807 32.068H513.935C513.967 32.396 514.119 32.664 514.391 32.872C514.671 33.08 515.035 33.184 515.483 33.184C515.899 33.184 516.227 33.092 516.467 32.908C516.707 32.724 516.827 32.492 516.827 32.212C516.827 31.924 516.699 31.712 516.443 31.576C516.187 31.432 515.791 31.292 515.255 31.156C514.767 31.028 514.367 30.9 514.055 30.772C513.751 30.636 513.487 30.44 513.263 30.184C513.047 29.92 512.939 29.576 512.939 29.152C512.939 28.816 513.039 28.508 513.239 28.228C513.439 27.948 513.723 27.728 514.091 27.568C514.459 27.4 514.879 27.316 515.351 27.316C516.079 27.316 516.667 27.5 517.115 27.868C517.563 28.236 517.803 28.74 517.835 29.38H516.743C516.719 29.036 516.579 28.76 516.323 28.552C516.075 28.344 515.739 28.24 515.315 28.24C514.923 28.24 514.611 28.324 514.379 28.492C514.147 28.66 514.031 28.88 514.031 29.152C514.031 29.368 514.099 29.548 514.235 29.692C514.379 29.828 514.555 29.94 514.763 30.028C514.979 30.108 515.275 30.2 515.651 30.304C516.123 30.432 516.507 30.56 516.803 30.688C517.099 30.808 517.351 30.992 517.559 31.24C517.775 31.488 517.887 31.812 517.895 32.212C517.895 32.572 517.795 32.896 517.595 33.184C517.395 33.472 517.111 33.7 516.743 33.868C516.383 34.028 515.967 34.108 515.495 34.108ZM526.037 30.46C526.037 30.668 526.025 30.888 526.001 31.12H520.745C520.785 31.768 521.005 32.276 521.405 32.644C521.813 33.004 522.305 33.184 522.881 33.184C523.353 33.184 523.745 33.076 524.057 32.86C524.377 32.636 524.601 32.34 524.729 31.972H525.905C525.729 32.604 525.377 33.12 524.849 33.52C524.321 33.912 523.665 34.108 522.881 34.108C522.257 34.108 521.697 33.968 521.201 33.688C520.713 33.408 520.329 33.012 520.049 32.5C519.769 31.98 519.629 31.38 519.629 30.7C519.629 30.02 519.765 29.424 520.037 28.912C520.309 28.4 520.689 28.008 521.177 27.736C521.673 27.456 522.241 27.316 522.881 27.316C523.505 27.316 524.057 27.452 524.537 27.724C525.017 27.996 525.385 28.372 525.641 28.852C525.905 29.324 526.037 29.86 526.037 30.46ZM524.909 30.232C524.909 29.816 524.817 29.46 524.633 29.164C524.449 28.86 524.197 28.632 523.877 28.48C523.565 28.32 523.217 28.24 522.833 28.24C522.281 28.24 521.809 28.416 521.417 28.768C521.033 29.12 520.813 29.608 520.757 30.232H524.909ZM529.17 28.636C529.386 28.26 529.706 27.948 530.13 27.7C530.562 27.444 531.062 27.316 531.63 27.316C532.214 27.316 532.742 27.456 533.214 27.736C533.694 28.016 534.07 28.412 534.342 28.924C534.614 29.428 534.75 30.016 534.75 30.688C534.75 31.352 534.614 31.944 534.342 32.464C534.07 32.984 533.694 33.388 533.214 33.676C532.742 33.964 532.214 34.108 531.63 34.108C531.07 34.108 530.574 33.984 530.142 33.736C529.718 33.48 529.394 33.164 529.17 32.788V37.12H528.078V27.424H529.17V28.636ZM533.634 30.688C533.634 30.192 533.534 29.76 533.334 29.392C533.134 29.024 532.862 28.744 532.518 28.552C532.182 28.36 531.81 28.264 531.402 28.264C531.002 28.264 530.63 28.364 530.286 28.564C529.95 28.756 529.678 29.04 529.47 29.416C529.27 29.784 529.17 30.212 529.17 30.7C529.17 31.196 529.27 31.632 529.47 32.008C529.678 32.376 529.95 32.66 530.286 32.86C530.63 33.052 531.002 33.148 531.402 33.148C531.81 33.148 532.182 33.052 532.518 32.86C532.862 32.66 533.134 32.376 533.334 32.008C533.534 31.632 533.634 31.192 533.634 30.688ZM540.274 33.124C541.29 32.308 542.086 31.64 542.662 31.12C543.238 30.592 543.722 30.044 544.114 29.476C544.514 28.9 544.714 28.336 544.714 27.784C544.714 27.264 544.586 26.856 544.33 26.56C544.082 26.256 543.678 26.104 543.118 26.104C542.574 26.104 542.15 26.276 541.846 26.62C541.55 26.956 541.39 27.408 541.366 27.976H540.31C540.342 27.08 540.614 26.388 541.126 25.9C541.638 25.412 542.298 25.168 543.106 25.168C543.93 25.168 544.582 25.396 545.062 25.852C545.55 26.308 545.794 26.936 545.794 27.736C545.794 28.4 545.594 29.048 545.194 29.68C544.802 30.304 544.354 30.856 543.85 31.336C543.346 31.808 542.702 32.36 541.918 32.992H546.046V33.904H540.274V33.124ZM547.909 29.572C547.909 28.196 548.133 27.124 548.581 26.356C549.029 25.58 549.813 25.192 550.933 25.192C552.045 25.192 552.825 25.58 553.273 26.356C553.721 27.124 553.945 28.196 553.945 29.572C553.945 30.972 553.721 32.06 553.273 32.836C552.825 33.612 552.045 34 550.933 34C549.813 34 549.029 33.612 548.581 32.836C548.133 32.06 547.909 30.972 547.909 29.572ZM552.865 29.572C552.865 28.876 552.817 28.288 552.721 27.808C552.633 27.32 552.445 26.928 552.157 26.632C551.877 26.336 551.469 26.188 550.933 26.188C550.389 26.188 549.973 26.336 549.685 26.632C549.405 26.928 549.217 27.32 549.121 27.808C549.033 28.288 548.989 28.876 548.989 29.572C548.989 30.292 549.033 30.896 549.121 31.384C549.217 31.872 549.405 32.264 549.685 32.56C549.973 32.856 550.389 33.004 550.933 33.004C551.469 33.004 551.877 32.856 552.157 32.56C552.445 32.264 552.633 31.872 552.721 31.384C552.817 30.896 552.865 30.292 552.865 29.572ZM555.912 33.124C556.928 32.308 557.724 31.64 558.3 31.12C558.876 30.592 559.36 30.044 559.752 29.476C560.152 28.9 560.352 28.336 560.352 27.784C560.352 27.264 560.224 26.856 559.968 26.56C559.72 26.256 559.316 26.104 558.756 26.104C558.212 26.104 557.788 26.276 557.484 26.62C557.188 26.956 557.028 27.408 557.004 27.976H555.948C555.98 27.08 556.252 26.388 556.764 25.9C557.276 25.412 557.936 25.168 558.744 25.168C559.568 25.168 560.22 25.396 560.7 25.852C561.188 26.308 561.432 26.936 561.432 27.736C561.432 28.4 561.232 29.048 560.832 29.68C560.44 30.304 559.992 30.856 559.488 31.336C558.984 31.808 558.34 32.36 557.556 32.992H561.684V33.904H555.912V33.124ZM563.414 33.124C564.43 32.308 565.226 31.64 565.802 31.12C566.378 30.592 566.862 30.044 567.254 29.476C567.654 28.9 567.854 28.336 567.854 27.784C567.854 27.264 567.726 26.856 567.47 26.56C567.222 26.256 566.818 26.104 566.258 26.104C565.714 26.104 565.29 26.276 564.986 26.62C564.69 26.956 564.53 27.408 564.506 27.976H563.45C563.482 27.08 563.754 26.388 564.266 25.9C564.778 25.412 565.438 25.168 566.246 25.168C567.07 25.168 567.722 25.396 568.202 25.852C568.69 26.308 568.934 26.936 568.934 27.736C568.934 28.4 568.734 29.048 568.334 29.68C567.942 30.304 567.494 30.856 566.99 31.336C566.486 31.808 565.842 32.36 565.058 32.992H569.186V33.904H563.414V33.124Z" fill="#657286"/>
<line x1="19" y1="49.5" x2="570" y2="49.5" stroke="#F4F6FA"/>
<path d="M25.846 72.83H21.59L20.806 75H19.462L22.99 65.298H24.46L27.974 75H26.63L25.846 72.83ZM25.482 71.794L23.718 66.866L21.954 71.794H25.482ZM33.3896 67.188C34.3229 67.188 35.0789 67.4727 35.6576 68.042C36.2363 68.602 36.5256 69.414 36.5256 70.478V75H35.2656V70.66C35.2656 69.8947 35.0743 69.3113 34.6916 68.91C34.3089 68.4993 33.7863 68.294 33.1236 68.294C32.4516 68.294 31.9149 68.504 31.5136 68.924C31.1216 69.344 30.9256 69.9553 30.9256 70.758V75H29.6516V67.328H30.9256V68.42C31.1776 68.028 31.5183 67.7247 31.9476 67.51C32.3863 67.2953 32.8669 67.188 33.3896 67.188ZM45.3547 67.328L40.7347 78.612H39.4187L40.9307 74.916L37.8367 67.328H39.2507L41.6587 73.544L44.0387 67.328H45.3547ZM50.1213 75.126C49.4027 75.126 48.7493 74.9627 48.1613 74.636C47.5827 74.3093 47.1253 73.8473 46.7893 73.25C46.4627 72.6433 46.2993 71.9433 46.2993 71.15C46.2993 70.366 46.4673 69.6753 46.8033 69.078C47.1487 68.4713 47.6153 68.0093 48.2033 67.692C48.7913 67.3653 49.4493 67.202 50.1773 67.202C50.9053 67.202 51.5633 67.3653 52.1513 67.692C52.7393 68.0093 53.2013 68.4667 53.5373 69.064C53.8827 69.6613 54.0553 70.3567 54.0553 71.15C54.0553 71.9433 53.878 72.6433 53.5233 73.25C53.178 73.8473 52.7067 74.3093 52.1093 74.636C51.512 74.9627 50.8493 75.126 50.1213 75.126ZM50.1213 74.006C50.5787 74.006 51.008 73.8987 51.4093 73.684C51.8107 73.4693 52.1327 73.1473 52.3753 72.718C52.6273 72.2887 52.7533 71.766 52.7533 71.15C52.7533 70.534 52.632 70.0113 52.3893 69.582C52.1467 69.1527 51.8293 68.8353 51.4373 68.63C51.0453 68.4153 50.6207 68.308 50.1633 68.308C49.6967 68.308 49.2673 68.4153 48.8753 68.63C48.4927 68.8353 48.1847 69.1527 47.9513 69.582C47.718 70.0113 47.6013 70.534 47.6013 71.15C47.6013 71.7753 47.7133 72.3027 47.9373 72.732C48.1707 73.1613 48.4787 73.4833 48.8613 73.698C49.244 73.9033 49.664 74.006 50.1213 74.006ZM59.6084 67.188C60.5418 67.188 61.2978 67.4727 61.8764 68.042C62.4551 68.602 62.7444 69.414 62.7444 70.478V75H61.4844V70.66C61.4844 69.8947 61.2931 69.3113 60.9104 68.91C60.5278 68.4993 60.0051 68.294 59.3424 68.294C58.6704 68.294 58.1338 68.504 57.7324 68.924C57.3404 69.344 57.1444 69.9553 57.1444 70.758V75H55.8704V67.328H57.1444V68.42C57.3964 68.028 57.7371 67.7247 58.1664 67.51C58.6051 67.2953 59.0858 67.188 59.6084 67.188ZM71.9655 70.87C71.9655 71.1127 71.9515 71.3693 71.9235 71.64H65.7915C65.8382 72.396 66.0948 72.9887 66.5615 73.418C67.0375 73.838 67.6115 74.048 68.2835 74.048C68.8342 74.048 69.2915 73.922 69.6555 73.67C70.0288 73.4087 70.2902 73.0633 70.4395 72.634H71.8115C71.6062 73.3713 71.1955 73.9733 70.5795 74.44C69.9635 74.8973 69.1982 75.126 68.2835 75.126C67.5555 75.126 66.9022 74.9627 66.3235 74.636C65.7542 74.3093 65.3062 73.8473 64.9795 73.25C64.6528 72.6433 64.4895 71.9433 64.4895 71.15C64.4895 70.3567 64.6482 69.6613 64.9655 69.064C65.2828 68.4667 65.7262 68.0093 66.2955 67.692C66.8742 67.3653 67.5368 67.202 68.2835 67.202C69.0115 67.202 69.6555 67.3607 70.2155 67.678C70.7755 67.9953 71.2048 68.434 71.5035 68.994C71.8115 69.5447 71.9655 70.17 71.9655 70.87ZM70.6495 70.604C70.6495 70.1187 70.5422 69.7033 70.3275 69.358C70.1128 69.0033 69.8188 68.7373 69.4455 68.56C69.0815 68.3733 68.6755 68.28 68.2275 68.28C67.5835 68.28 67.0328 68.4853 66.5755 68.896C66.1275 69.3067 65.8708 69.876 65.8055 70.604H70.6495ZM84.4636 67.328V75H83.1896V73.866C82.9469 74.258 82.6062 74.566 82.1676 74.79C81.7382 75.0047 81.2622 75.112 80.7396 75.112C80.1422 75.112 79.6056 74.9907 79.1296 74.748C78.6536 74.496 78.2756 74.1227 77.9956 73.628C77.7249 73.1333 77.5896 72.5313 77.5896 71.822V67.328H78.8496V71.654C78.8496 72.41 79.0409 72.9933 79.4236 73.404C79.8062 73.8053 80.3289 74.006 80.9916 74.006C81.6729 74.006 82.2096 73.796 82.6016 73.376C82.9936 72.956 83.1896 72.3447 83.1896 71.542V67.328H84.4636ZM88.0286 68.742C88.2806 68.3033 88.654 67.9393 89.1486 67.65C89.6526 67.3513 90.236 67.202 90.8986 67.202C91.58 67.202 92.196 67.3653 92.7466 67.692C93.3066 68.0187 93.7453 68.4807 94.0626 69.078C94.38 69.666 94.5386 70.352 94.5386 71.136C94.5386 71.9107 94.38 72.6013 94.0626 73.208C93.7453 73.8147 93.3066 74.286 92.7466 74.622C92.196 74.958 91.58 75.126 90.8986 75.126C90.2453 75.126 89.6666 74.9813 89.1626 74.692C88.668 74.3933 88.29 74.0247 88.0286 73.586V78.64H86.7546V67.328H88.0286V68.742ZM93.2366 71.136C93.2366 70.5573 93.12 70.0533 92.8866 69.624C92.6533 69.1947 92.336 68.868 91.9346 68.644C91.5426 68.42 91.1086 68.308 90.6326 68.308C90.166 68.308 89.732 68.4247 89.3306 68.658C88.9386 68.882 88.6213 69.2133 88.3786 69.652C88.1453 70.0813 88.0286 70.5807 88.0286 71.15C88.0286 71.7287 88.1453 72.2373 88.3786 72.676C88.6213 73.1053 88.9386 73.4367 89.3306 73.67C89.732 73.894 90.166 74.006 90.6326 74.006C91.1086 74.006 91.5426 73.894 91.9346 73.67C92.336 73.4367 92.6533 73.1053 92.8866 72.676C93.12 72.2373 93.2366 71.724 93.2366 71.136ZM103.35 68.378H101.74V75H100.466V68.378H99.472V67.328H100.466V66.782C100.466 65.9233 100.685 65.298 101.124 64.906C101.572 64.5047 102.286 64.304 103.266 64.304V65.368C102.706 65.368 102.309 65.48 102.076 65.704C101.852 65.9187 101.74 66.278 101.74 66.782V67.328H103.35V68.378ZM108.321 75.126C107.603 75.126 106.949 74.9627 106.361 74.636C105.783 74.3093 105.325 73.8473 104.989 73.25C104.663 72.6433 104.499 71.9433 104.499 71.15C104.499 70.366 104.667 69.6753 105.003 69.078C105.349 68.4713 105.815 68.0093 106.403 67.692C106.991 67.3653 107.649 67.202 108.377 67.202C109.105 67.202 109.763 67.3653 110.351 67.692C110.939 68.0093 111.401 68.4667 111.737 69.064C112.083 69.6613 112.255 70.3567 112.255 71.15C112.255 71.9433 112.078 72.6433 111.723 73.25C111.378 73.8473 110.907 74.3093 110.309 74.636C109.712 74.9627 109.049 75.126 108.321 75.126ZM108.321 74.006C108.779 74.006 109.208 73.8987 109.609 73.684C110.011 73.4693 110.333 73.1473 110.575 72.718C110.827 72.2887 110.953 71.766 110.953 71.15C110.953 70.534 110.832 70.0113 110.589 69.582C110.347 69.1527 110.029 68.8353 109.637 68.63C109.245 68.4153 108.821 68.308 108.363 68.308C107.897 68.308 107.467 68.4153 107.075 68.63C106.693 68.8353 106.385 69.1527 106.151 69.582C105.918 70.0113 105.801 70.534 105.801 71.15C105.801 71.7753 105.913 72.3027 106.137 72.732C106.371 73.1613 106.679 73.4833 107.061 73.698C107.444 73.9033 107.864 74.006 108.321 74.006ZM115.345 68.574C115.569 68.1353 115.886 67.7947 116.297 67.552C116.717 67.3093 117.225 67.188 117.823 67.188V68.504H117.487C116.059 68.504 115.345 69.2787 115.345 70.828V75H114.071V67.328H115.345V68.574ZM122.83 71.136C122.83 70.352 122.988 69.666 123.306 69.078C123.623 68.4807 124.057 68.0187 124.608 67.692C125.168 67.3653 125.788 67.202 126.47 67.202C127.142 67.202 127.725 67.3467 128.22 67.636C128.714 67.9253 129.083 68.2893 129.326 68.728V67.328H130.614V75H129.326V73.572C129.074 74.02 128.696 74.3933 128.192 74.692C127.697 74.9813 127.118 75.126 126.456 75.126C125.774 75.126 125.158 74.958 124.608 74.622C124.057 74.286 123.623 73.8147 123.306 73.208C122.988 72.6013 122.83 71.9107 122.83 71.136ZM129.326 71.15C129.326 70.5713 129.209 70.0673 128.976 69.638C128.742 69.2087 128.425 68.882 128.024 68.658C127.632 68.4247 127.198 68.308 126.722 68.308C126.246 68.308 125.812 68.42 125.42 68.644C125.028 68.868 124.715 69.1947 124.482 69.624C124.248 70.0533 124.132 70.5573 124.132 71.136C124.132 71.724 124.248 72.2373 124.482 72.676C124.715 73.1053 125.028 73.4367 125.42 73.67C125.812 73.894 126.246 74.006 126.722 74.006C127.198 74.006 127.632 73.894 128.024 73.67C128.425 73.4367 128.742 73.1053 128.976 72.676C129.209 72.2373 129.326 71.7287 129.326 71.15ZM138.053 68.574C138.277 68.1353 138.594 67.7947 139.005 67.552C139.425 67.3093 139.934 67.188 140.531 67.188V68.504H140.195C138.767 68.504 138.053 69.2787 138.053 70.828V75H136.779V67.328H138.053V68.574ZM148.946 67.328V75H147.672V73.866C147.429 74.258 147.088 74.566 146.65 74.79C146.22 75.0047 145.744 75.112 145.222 75.112C144.624 75.112 144.088 74.9907 143.612 74.748C143.136 74.496 142.758 74.1227 142.478 73.628C142.207 73.1333 142.072 72.5313 142.072 71.822V67.328H143.332V71.654C143.332 72.41 143.523 72.9933 143.906 73.404C144.288 73.8053 144.811 74.006 145.474 74.006C146.155 74.006 146.692 73.796 147.084 73.376C147.476 72.956 147.672 72.3447 147.672 71.542V67.328H148.946ZM154.975 67.188C155.908 67.188 156.664 67.4727 157.243 68.042C157.821 68.602 158.111 69.414 158.111 70.478V75H156.851V70.66C156.851 69.8947 156.659 69.3113 156.277 68.91C155.894 68.4993 155.371 68.294 154.709 68.294C154.037 68.294 153.5 68.504 153.099 68.924C152.707 69.344 152.511 69.9553 152.511 70.758V75H151.237V67.328H152.511V68.42C152.763 68.028 153.103 67.7247 153.533 67.51C153.971 67.2953 154.452 67.188 154.975 67.188ZM163.728 71.136C163.728 70.352 163.887 69.666 164.204 69.078C164.522 68.4807 164.956 68.0187 165.506 67.692C166.066 67.3653 166.687 67.202 167.368 67.202C168.04 67.202 168.624 67.3467 169.118 67.636C169.613 67.9253 169.982 68.2893 170.224 68.728V67.328H171.512V75H170.224V73.572C169.972 74.02 169.594 74.3933 169.09 74.692C168.596 74.9813 168.017 75.126 167.354 75.126C166.673 75.126 166.057 74.958 165.506 74.622C164.956 74.286 164.522 73.8147 164.204 73.208C163.887 72.6013 163.728 71.9107 163.728 71.136ZM170.224 71.15C170.224 70.5713 170.108 70.0673 169.874 69.638C169.641 69.2087 169.324 68.882 168.922 68.658C168.53 68.4247 168.096 68.308 167.62 68.308C167.144 68.308 166.71 68.42 166.318 68.644C165.926 68.868 165.614 69.1947 165.38 69.624C165.147 70.0533 165.03 70.5573 165.03 71.136C165.03 71.724 165.147 72.2373 165.38 72.676C165.614 73.1053 165.926 73.4367 166.318 73.67C166.71 73.894 167.144 74.006 167.62 74.006C168.096 74.006 168.53 73.894 168.922 73.67C169.324 73.4367 169.641 73.1053 169.874 72.676C170.108 72.2373 170.224 71.7287 170.224 71.15ZM175.079 68.574C175.303 68.1353 175.62 67.7947 176.031 67.552C176.451 67.3093 176.96 67.188 177.557 67.188V68.504H177.221C175.793 68.504 175.079 69.2787 175.079 70.828V75H173.805V67.328H175.079V68.574ZM182.514 75.126C181.795 75.126 181.142 74.9627 180.554 74.636C179.975 74.3093 179.518 73.8473 179.182 73.25C178.855 72.6433 178.692 71.9433 178.692 71.15C178.692 70.366 178.86 69.6753 179.196 69.078C179.541 68.4713 180.008 68.0093 180.596 67.692C181.184 67.3653 181.842 67.202 182.57 67.202C183.298 67.202 183.956 67.3653 184.544 67.692C185.132 68.0093 185.594 68.4667 185.93 69.064C186.275 69.6613 186.448 70.3567 186.448 71.15C186.448 71.9433 186.27 72.6433 185.916 73.25C185.57 73.8473 185.099 74.3093 184.502 74.636C183.904 74.9627 183.242 75.126 182.514 75.126ZM182.514 74.006C182.971 74.006 183.4 73.8987 183.802 73.684C184.203 73.4693 184.525 73.1473 184.768 72.718C185.02 72.2887 185.146 71.766 185.146 71.15C185.146 70.534 185.024 70.0113 184.782 69.582C184.539 69.1527 184.222 68.8353 183.83 68.63C183.438 68.4153 183.013 68.308 182.556 68.308C182.089 68.308 181.66 68.4153 181.268 68.63C180.885 68.8353 180.577 69.1527 180.344 69.582C180.11 70.0113 179.994 70.534 179.994 71.15C179.994 71.7753 180.106 72.3027 180.33 72.732C180.563 73.1613 180.871 73.4833 181.254 73.698C181.636 73.9033 182.056 74.006 182.514 74.006ZM195.067 67.328V75H193.793V73.866C193.55 74.258 193.21 74.566 192.771 74.79C192.342 75.0047 191.866 75.112 191.343 75.112C190.746 75.112 190.209 74.9907 189.733 74.748C189.257 74.496 188.879 74.1227 188.599 73.628C188.328 73.1333 188.193 72.5313 188.193 71.822V67.328H189.453V71.654C189.453 72.41 189.644 72.9933 190.027 73.404C190.41 73.8053 190.932 74.006 191.595 74.006C192.276 74.006 192.813 73.796 193.205 73.376C193.597 72.956 193.793 72.3447 193.793 71.542V67.328H195.067ZM201.096 67.188C202.029 67.188 202.785 67.4727 203.364 68.042C203.943 68.602 204.232 69.414 204.232 70.478V75H202.972V70.66C202.972 69.8947 202.781 69.3113 202.398 68.91C202.015 68.4993 201.493 68.294 200.83 68.294C200.158 68.294 199.621 68.504 199.22 68.924C198.828 69.344 198.632 69.9553 198.632 70.758V75H197.358V67.328H198.632V68.42C198.884 68.028 199.225 67.7247 199.654 67.51C200.093 67.2953 200.573 67.188 201.096 67.188ZM205.977 71.136C205.977 70.352 206.136 69.666 206.453 69.078C206.77 68.4807 207.204 68.0187 207.755 67.692C208.315 67.3653 208.94 67.202 209.631 67.202C210.228 67.202 210.784 67.342 211.297 67.622C211.81 67.8927 212.202 68.252 212.473 68.7V64.64H213.761V75H212.473V73.558C212.221 74.0153 211.848 74.3933 211.353 74.692C210.858 74.9813 210.28 75.126 209.617 75.126C208.936 75.126 208.315 74.958 207.755 74.622C207.204 74.286 206.77 73.8147 206.453 73.208C206.136 72.6013 205.977 71.9107 205.977 71.136ZM212.473 71.15C212.473 70.5713 212.356 70.0673 212.123 69.638C211.89 69.2087 211.572 68.882 211.171 68.658C210.779 68.4247 210.345 68.308 209.869 68.308C209.393 68.308 208.959 68.42 208.567 68.644C208.175 68.868 207.862 69.1947 207.629 69.624C207.396 70.0533 207.279 70.5573 207.279 71.136C207.279 71.724 207.396 72.2373 207.629 72.676C207.862 73.1053 208.175 73.4367 208.567 73.67C208.959 73.894 209.393 74.006 209.869 74.006C210.345 74.006 210.779 73.894 211.171 73.67C211.572 73.4367 211.89 73.1053 212.123 72.676C212.356 72.2373 212.473 71.7287 212.473 71.15ZM221.48 68.378V72.9C221.48 73.2733 221.56 73.5393 221.718 73.698C221.877 73.8473 222.152 73.922 222.544 73.922H223.482V75H222.334C221.625 75 221.093 74.8367 220.738 74.51C220.384 74.1833 220.206 73.6467 220.206 72.9V68.378H219.212V67.328H220.206V65.396H221.48V67.328H223.482V68.378H221.48ZM228.974 67.188C229.553 67.188 230.075 67.314 230.542 67.566C231.009 67.8087 231.373 68.1773 231.634 68.672C231.905 69.1667 232.04 69.7687 232.04 70.478V75H230.78V70.66C230.78 69.8947 230.589 69.3113 230.206 68.91C229.823 68.4993 229.301 68.294 228.638 68.294C227.966 68.294 227.429 68.504 227.028 68.924C226.636 69.344 226.44 69.9553 226.44 70.758V75H225.166V64.64H226.44V68.42C226.692 68.028 227.037 67.7247 227.476 67.51C227.924 67.2953 228.423 67.188 228.974 67.188ZM241.261 70.87C241.261 71.1127 241.247 71.3693 241.219 71.64H235.087C235.134 72.396 235.39 72.9887 235.857 73.418C236.333 73.838 236.907 74.048 237.579 74.048C238.13 74.048 238.587 73.922 238.951 73.67C239.324 73.4087 239.586 73.0633 239.735 72.634H241.107C240.902 73.3713 240.491 73.9733 239.875 74.44C239.259 74.8973 238.494 75.126 237.579 75.126C236.851 75.126 236.198 74.9627 235.619 74.636C235.05 74.3093 234.602 73.8473 234.275 73.25C233.948 72.6433 233.785 71.9433 233.785 71.15C233.785 70.3567 233.944 69.6613 234.261 69.064C234.578 68.4667 235.022 68.0093 235.591 67.692C236.17 67.3653 236.832 67.202 237.579 67.202C238.307 67.202 238.951 67.3607 239.511 67.678C240.071 67.9953 240.5 68.434 240.799 68.994C241.107 69.5447 241.261 70.17 241.261 70.87ZM239.945 70.604C239.945 70.1187 239.838 69.7033 239.623 69.358C239.408 69.0033 239.114 68.7373 238.741 68.56C238.377 68.3733 237.971 68.28 237.523 68.28C236.879 68.28 236.328 68.4853 235.871 68.896C235.423 69.3067 235.166 69.876 235.101 70.604H239.945ZM248.229 68.742C248.481 68.3033 248.854 67.9393 249.349 67.65C249.853 67.3513 250.436 67.202 251.099 67.202C251.78 67.202 252.396 67.3653 252.947 67.692C253.507 68.0187 253.946 68.4807 254.263 69.078C254.58 69.666 254.739 70.352 254.739 71.136C254.739 71.9107 254.58 72.6013 254.263 73.208C253.946 73.8147 253.507 74.286 252.947 74.622C252.396 74.958 251.78 75.126 251.099 75.126C250.446 75.126 249.867 74.9813 249.363 74.692C248.868 74.3933 248.49 74.0247 248.229 73.586V78.64H246.955V67.328H248.229V68.742ZM253.437 71.136C253.437 70.5573 253.32 70.0533 253.087 69.624C252.854 69.1947 252.536 68.868 252.135 68.644C251.743 68.42 251.309 68.308 250.833 68.308C250.366 68.308 249.932 68.4247 249.531 68.658C249.139 68.882 248.822 69.2133 248.579 69.652C248.346 70.0813 248.229 70.5807 248.229 71.15C248.229 71.7287 248.346 72.2373 248.579 72.676C248.822 73.1053 249.139 73.4367 249.531 73.67C249.932 73.894 250.366 74.006 250.833 74.006C251.309 74.006 251.743 73.894 252.135 73.67C252.536 73.4367 252.854 73.1053 253.087 72.676C253.32 72.2373 253.437 71.724 253.437 71.136ZM256.08 71.136C256.08 70.352 256.239 69.666 256.556 69.078C256.873 68.4807 257.307 68.0187 257.858 67.692C258.418 67.3653 259.039 67.202 259.72 67.202C260.392 67.202 260.975 67.3467 261.47 67.636C261.965 67.9253 262.333 68.2893 262.576 68.728V67.328H263.864V75H262.576V73.572C262.324 74.02 261.946 74.3933 261.442 74.692C260.947 74.9813 260.369 75.126 259.706 75.126C259.025 75.126 258.409 74.958 257.858 74.622C257.307 74.286 256.873 73.8147 256.556 73.208C256.239 72.6013 256.08 71.9107 256.08 71.136ZM262.576 71.15C262.576 70.5713 262.459 70.0673 262.226 69.638C261.993 69.2087 261.675 68.882 261.274 68.658C260.882 68.4247 260.448 68.308 259.972 68.308C259.496 68.308 259.062 68.42 258.67 68.644C258.278 68.868 257.965 69.1947 257.732 69.624C257.499 70.0533 257.382 70.5573 257.382 71.136C257.382 71.724 257.499 72.2373 257.732 72.676C257.965 73.1053 258.278 73.4367 258.67 73.67C259.062 73.894 259.496 74.006 259.972 74.006C260.448 74.006 260.882 73.894 261.274 73.67C261.675 73.4367 261.993 73.1053 262.226 72.676C262.459 72.2373 262.576 71.7287 262.576 71.15ZM267.431 68.574C267.655 68.1353 267.972 67.7947 268.383 67.552C268.803 67.3093 269.312 67.188 269.909 67.188V68.504H269.573C268.145 68.504 267.431 69.2787 267.431 70.828V75H266.157V67.328H267.431V68.574ZM275.804 75L272.794 71.612V75H271.52V64.64H272.794V70.73L275.748 67.328H277.526L273.914 71.15L277.54 75H275.804ZM284.291 68.378V72.9C284.291 73.2733 284.37 73.5393 284.529 73.698C284.688 73.8473 284.963 73.922 285.355 73.922H286.293V75H285.145C284.436 75 283.904 74.8367 283.549 74.51C283.194 74.1833 283.017 73.6467 283.017 72.9V68.378H282.023V67.328H283.017V65.396H284.291V67.328H286.293V68.378H284.291ZM291.323 75.126C290.604 75.126 289.951 74.9627 289.363 74.636C288.784 74.3093 288.327 73.8473 287.991 73.25C287.664 72.6433 287.501 71.9433 287.501 71.15C287.501 70.366 287.669 69.6753 288.005 69.078C288.35 68.4713 288.817 68.0093 289.405 67.692C289.993 67.3653 290.651 67.202 291.379 67.202C292.107 67.202 292.765 67.3653 293.353 67.692C293.941 68.0093 294.403 68.4667 294.739 69.064C295.084 69.6613 295.257 70.3567 295.257 71.15C295.257 71.9433 295.079 72.6433 294.725 73.25C294.379 73.8473 293.908 74.3093 293.311 74.636C292.713 74.9627 292.051 75.126 291.323 75.126ZM291.323 74.006C291.78 74.006 292.209 73.8987 292.611 73.684C293.012 73.4693 293.334 73.1473 293.577 72.718C293.829 72.2887 293.955 71.766 293.955 71.15C293.955 70.534 293.833 70.0113 293.591 69.582C293.348 69.1527 293.031 68.8353 292.639 68.63C292.247 68.4153 291.822 68.308 291.365 68.308C290.898 68.308 290.469 68.4153 290.077 68.63C289.694 68.8353 289.386 69.1527 289.153 69.582C288.919 70.0113 288.803 70.534 288.803 71.15C288.803 71.7753 288.915 72.3027 289.139 72.732C289.372 73.1613 289.68 73.4833 290.063 73.698C290.445 73.9033 290.865 74.006 291.323 74.006ZM306.298 67.188C306.895 67.188 307.427 67.314 307.894 67.566C308.361 67.8087 308.729 68.1773 309 68.672C309.271 69.1667 309.406 69.7687 309.406 70.478V75H308.146V70.66C308.146 69.8947 307.955 69.3113 307.572 68.91C307.199 68.4993 306.69 68.294 306.046 68.294C305.383 68.294 304.856 68.5087 304.464 68.938C304.072 69.358 303.876 69.9693 303.876 70.772V75H302.616V70.66C302.616 69.8947 302.425 69.3113 302.042 68.91C301.669 68.4993 301.16 68.294 300.516 68.294C299.853 68.294 299.326 68.5087 298.934 68.938C298.542 69.358 298.346 69.9693 298.346 70.772V75H297.072V67.328H298.346V68.434C298.598 68.0327 298.934 67.7247 299.354 67.51C299.783 67.2953 300.255 67.188 300.768 67.188C301.412 67.188 301.981 67.3327 302.476 67.622C302.971 67.9113 303.339 68.336 303.582 68.896C303.797 68.3547 304.151 67.9347 304.646 67.636C305.141 67.3373 305.691 67.188 306.298 67.188ZM314.982 75.126C314.263 75.126 313.61 74.9627 313.022 74.636C312.443 74.3093 311.986 73.8473 311.65 73.25C311.323 72.6433 311.16 71.9433 311.16 71.15C311.16 70.366 311.328 69.6753 311.664 69.078C312.009 68.4713 312.476 68.0093 313.064 67.692C313.652 67.3653 314.31 67.202 315.038 67.202C315.766 67.202 316.424 67.3653 317.012 67.692C317.6 68.0093 318.062 68.4667 318.398 69.064C318.743 69.6613 318.916 70.3567 318.916 71.15C318.916 71.9433 318.738 72.6433 318.384 73.25C318.038 73.8473 317.567 74.3093 316.97 74.636C316.372 74.9627 315.71 75.126 314.982 75.126ZM314.982 74.006C315.439 74.006 315.868 73.8987 316.27 73.684C316.671 73.4693 316.993 73.1473 317.236 72.718C317.488 72.2887 317.614 71.766 317.614 71.15C317.614 70.534 317.492 70.0113 317.25 69.582C317.007 69.1527 316.69 68.8353 316.298 68.63C315.906 68.4153 315.481 68.308 315.024 68.308C314.557 68.308 314.128 68.4153 313.736 68.63C313.353 68.8353 313.045 69.1527 312.812 69.582C312.578 70.0113 312.462 70.534 312.462 71.15C312.462 71.7753 312.574 72.3027 312.798 72.732C313.031 73.1613 313.339 73.4833 313.722 73.698C314.104 73.9033 314.524 74.006 314.982 74.006ZM322.005 68.574C322.229 68.1353 322.546 67.7947 322.957 67.552C323.377 67.3093 323.885 67.188 324.483 67.188V68.504H324.147C322.719 68.504 322.005 69.2787 322.005 70.828V75H320.731V67.328H322.005V68.574ZM327.367 68.574C327.591 68.1353 327.909 67.7947 328.319 67.552C328.739 67.3093 329.248 67.188 329.845 67.188V68.504H329.509C328.081 68.504 327.367 69.2787 327.367 70.828V75H326.093V67.328H327.367V68.574ZM334.802 75.126C334.083 75.126 333.43 74.9627 332.842 74.636C332.263 74.3093 331.806 73.8473 331.47 73.25C331.143 72.6433 330.98 71.9433 330.98 71.15C330.98 70.366 331.148 69.6753 331.484 69.078C331.829 68.4713 332.296 68.0093 332.884 67.692C333.472 67.3653 334.13 67.202 334.858 67.202C335.586 67.202 336.244 67.3653 336.832 67.692C337.42 68.0093 337.882 68.4667 338.218 69.064C338.563 69.6613 338.736 70.3567 338.736 71.15C338.736 71.9433 338.559 72.6433 338.204 73.25C337.859 73.8473 337.387 74.3093 336.79 74.636C336.193 74.9627 335.53 75.126 334.802 75.126ZM334.802 74.006C335.259 74.006 335.689 73.8987 336.09 73.684C336.491 73.4693 336.813 73.1473 337.056 72.718C337.308 72.2887 337.434 71.766 337.434 71.15C337.434 70.534 337.313 70.0113 337.07 69.582C336.827 69.1527 336.51 68.8353 336.118 68.63C335.726 68.4153 335.301 68.308 334.844 68.308C334.377 68.308 333.948 68.4153 333.556 68.63C333.173 68.8353 332.865 69.1527 332.632 69.582C332.399 70.0113 332.282 70.534 332.282 71.15C332.282 71.7753 332.394 72.3027 332.618 72.732C332.851 73.1613 333.159 73.4833 333.542 73.698C333.925 73.9033 334.345 74.006 334.802 74.006ZM350.771 67.328L348.377 75H347.061L345.213 68.91L343.365 75H342.049L339.641 67.328H340.943L342.707 73.768L344.611 67.328H345.913L347.775 73.782L349.511 67.328H350.771ZM354.668 65.116C355.592 65.116 356.338 65.3773 356.908 65.9C357.477 66.4227 357.762 67.1227 357.762 68C357.762 68.98 357.458 69.708 356.852 70.184C356.245 70.6507 355.424 70.884 354.388 70.884L354.346 72.214H353.24L353.184 70.002H353.59C354.514 70.002 355.237 69.862 355.76 69.582C356.282 69.302 356.544 68.7747 356.544 68C356.544 67.44 356.376 66.9967 356.04 66.67C355.704 66.3433 355.251 66.18 354.682 66.18C354.103 66.18 353.646 66.3387 353.31 66.656C352.983 66.964 352.82 67.3887 352.82 67.93H351.616C351.616 67.37 351.742 66.88 351.994 66.46C352.246 66.0307 352.6 65.6993 353.058 65.466C353.524 65.2327 354.061 65.116 354.668 65.116ZM353.786 75.084C353.543 75.084 353.338 75 353.17 74.832C353.002 74.664 352.918 74.4587 352.918 74.216C352.918 73.9733 353.002 73.768 353.17 73.6C353.338 73.432 353.543 73.348 353.786 73.348C354.019 73.348 354.215 73.432 354.374 73.6C354.542 73.768 354.626 73.9733 354.626 74.216C354.626 74.4587 354.542 74.664 354.374 74.832C354.215 75 354.019 75.084 353.786 75.084Z" fill="#657286"/>
<line x1="19" y1="89.5" x2="570" y2="89.5" stroke="#F4F6FA"/>
<g filter="url(#filter1_d_1_7773)">
<path d="M31.742 119.764C31.742 118.149 32.0313 116.885 32.61 115.97C33.198 115.055 34.1687 114.598 35.522 114.598C36.8753 114.598 37.8413 115.055 38.42 115.97C39.008 116.885 39.302 118.149 39.302 119.764C39.302 121.388 39.008 122.662 38.42 123.586C37.8413 124.51 36.8753 124.972 35.522 124.972C34.1687 124.972 33.198 124.51 32.61 123.586C32.0313 122.662 31.742 121.388 31.742 119.764ZM37.37 119.764C37.37 119.073 37.3233 118.495 37.23 118.028C37.146 117.552 36.9687 117.165 36.698 116.866C36.4367 116.567 36.0447 116.418 35.522 116.418C34.9993 116.418 34.6027 116.567 34.332 116.866C34.0707 117.165 33.8933 117.552 33.8 118.028C33.716 118.495 33.674 119.073 33.674 119.764C33.674 120.473 33.716 121.071 33.8 121.556C33.884 122.032 34.0613 122.419 34.332 122.718C34.6027 123.007 34.9993 123.152 35.522 123.152C36.0447 123.152 36.4413 123.007 36.712 122.718C36.9827 122.419 37.16 122.032 37.244 121.556C37.328 121.071 37.37 120.473 37.37 119.764ZM43.8487 121.122C43.8487 120.319 44.0121 119.619 44.3387 119.022C44.6654 118.415 45.1181 117.949 45.6967 117.622C46.2754 117.286 46.9381 117.118 47.6847 117.118C48.6461 117.118 49.4394 117.361 50.0647 117.846C50.6994 118.322 51.1241 118.994 51.3387 119.862H49.2247C49.1127 119.526 48.9214 119.265 48.6507 119.078C48.3894 118.882 48.0627 118.784 47.6707 118.784C47.1107 118.784 46.6674 118.989 46.3407 119.4C46.0141 119.801 45.8507 120.375 45.8507 121.122C45.8507 121.859 46.0141 122.433 46.3407 122.844C46.6674 123.245 47.1107 123.446 47.6707 123.446C48.4641 123.446 48.9821 123.091 49.2247 122.382H51.3387C51.1241 123.222 50.6994 123.889 50.0647 124.384C49.4301 124.879 48.6367 125.126 47.6847 125.126C46.9381 125.126 46.2754 124.963 45.6967 124.636C45.1181 124.3 44.6654 123.833 44.3387 123.236C44.0121 122.629 43.8487 121.925 43.8487 121.122ZM56.2186 125.126C55.4719 125.126 54.7999 124.963 54.2026 124.636C53.6053 124.3 53.1339 123.829 52.7886 123.222C52.4526 122.615 52.2846 121.915 52.2846 121.122C52.2846 120.329 52.4573 119.629 52.8026 119.022C53.1573 118.415 53.6379 117.949 54.2446 117.622C54.8513 117.286 55.5279 117.118 56.2746 117.118C57.0213 117.118 57.6979 117.286 58.3046 117.622C58.9113 117.949 59.3873 118.415 59.7326 119.022C60.0873 119.629 60.2646 120.329 60.2646 121.122C60.2646 121.915 60.0826 122.615 59.7186 123.222C59.3639 123.829 58.8786 124.3 58.2626 124.636C57.6559 124.963 56.9746 125.126 56.2186 125.126ZM56.2186 123.418C56.5733 123.418 56.9046 123.334 57.2126 123.166C57.5299 122.989 57.7819 122.727 57.9686 122.382C58.1553 122.037 58.2486 121.617 58.2486 121.122C58.2486 120.385 58.0526 119.82 57.6606 119.428C57.2779 119.027 56.8066 118.826 56.2466 118.826C55.6866 118.826 55.2153 119.027 54.8326 119.428C54.4593 119.82 54.2726 120.385 54.2726 121.122C54.2726 121.859 54.4546 122.429 54.8186 122.83C55.1919 123.222 55.6586 123.418 56.2186 123.418ZM71.3343 117.132C72.2863 117.132 73.0517 117.426 73.6303 118.014C74.2183 118.593 74.5123 119.405 74.5123 120.45V125H72.5523V120.716C72.5523 120.109 72.3983 119.647 72.0903 119.33C71.7823 119.003 71.3623 118.84 70.8303 118.84C70.2983 118.84 69.8737 119.003 69.5563 119.33C69.2483 119.647 69.0943 120.109 69.0943 120.716V125H67.1343V120.716C67.1343 120.109 66.9803 119.647 66.6723 119.33C66.3643 119.003 65.9443 118.84 65.4123 118.84C64.871 118.84 64.4417 119.003 64.1243 119.33C63.8163 119.647 63.6623 120.109 63.6623 120.716V125H61.7023V117.244H63.6623V118.182C63.9143 117.855 64.2363 117.599 64.6283 117.412C65.0297 117.225 65.4683 117.132 65.9443 117.132C66.551 117.132 67.0923 117.263 67.5683 117.524C68.0443 117.776 68.413 118.14 68.6743 118.616C68.9263 118.168 69.2903 117.809 69.7663 117.538C70.2517 117.267 70.7743 117.132 71.3343 117.132ZM86.0043 117.132C86.9563 117.132 87.7216 117.426 88.3003 118.014C88.8883 118.593 89.1823 119.405 89.1823 120.45V125H87.2223V120.716C87.2223 120.109 87.0683 119.647 86.7603 119.33C86.4523 119.003 86.0323 118.84 85.5003 118.84C84.9683 118.84 84.5436 119.003 84.2263 119.33C83.9183 119.647 83.7643 120.109 83.7643 120.716V125H81.8043V120.716C81.8043 120.109 81.6503 119.647 81.3423 119.33C81.0343 119.003 80.6143 118.84 80.0823 118.84C79.5409 118.84 79.1116 119.003 78.7943 119.33C78.4863 119.647 78.3323 120.109 78.3323 120.716V125H76.3723V117.244H78.3323V118.182C78.5843 117.855 78.9063 117.599 79.2983 117.412C79.6996 117.225 80.1383 117.132 80.6143 117.132C81.2209 117.132 81.7623 117.263 82.2383 117.524C82.7143 117.776 83.0829 118.14 83.3443 118.616C83.5963 118.168 83.9603 117.809 84.4363 117.538C84.9216 117.267 85.4443 117.132 86.0043 117.132ZM98.2522 120.954C98.2522 121.234 98.2335 121.486 98.1962 121.71H92.5262C92.5728 122.27 92.7688 122.709 93.1142 123.026C93.4595 123.343 93.8842 123.502 94.3882 123.502C95.1162 123.502 95.6342 123.189 95.9422 122.564H98.0562C97.8322 123.311 97.4028 123.927 96.7682 124.412C96.1335 124.888 95.3542 125.126 94.4302 125.126C93.6835 125.126 93.0115 124.963 92.4142 124.636C91.8262 124.3 91.3642 123.829 91.0282 123.222C90.7015 122.615 90.5382 121.915 90.5382 121.122C90.5382 120.319 90.7015 119.615 91.0282 119.008C91.3548 118.401 91.8122 117.935 92.4002 117.608C92.9882 117.281 93.6648 117.118 94.4302 117.118C95.1675 117.118 95.8255 117.277 96.4042 117.594C96.9922 117.911 97.4448 118.364 97.7622 118.952C98.0888 119.531 98.2522 120.198 98.2522 120.954ZM96.2222 120.394C96.2128 119.89 96.0308 119.489 95.6762 119.19C95.3215 118.882 94.8875 118.728 94.3742 118.728C93.8888 118.728 93.4782 118.877 93.1422 119.176C92.8155 119.465 92.6148 119.871 92.5402 120.394H96.2222ZM103.981 117.132C104.905 117.132 105.651 117.426 106.221 118.014C106.79 118.593 107.075 119.405 107.075 120.45V125H105.115V120.716C105.115 120.1 104.961 119.629 104.653 119.302C104.345 118.966 103.925 118.798 103.393 118.798C102.851 118.798 102.422 118.966 102.105 119.302C101.797 119.629 101.643 120.1 101.643 120.716V125H99.6828V117.244H101.643V118.21C101.904 117.874 102.235 117.613 102.637 117.426C103.047 117.23 103.495 117.132 103.981 117.132ZM111.221 118.854V122.606C111.221 122.867 111.281 123.059 111.403 123.18C111.533 123.292 111.748 123.348 112.047 123.348H112.957V125H111.725C110.073 125 109.247 124.197 109.247 122.592V118.854H108.323V117.244H109.247V115.326H111.221V117.244H112.957V118.854H111.221ZM117.334 125.126C116.7 125.126 116.13 125.014 115.626 124.79C115.122 124.557 114.721 124.244 114.422 123.852C114.133 123.46 113.974 123.026 113.946 122.55H115.92C115.958 122.849 116.102 123.096 116.354 123.292C116.616 123.488 116.938 123.586 117.32 123.586C117.694 123.586 117.983 123.511 118.188 123.362C118.403 123.213 118.51 123.021 118.51 122.788C118.51 122.536 118.38 122.349 118.118 122.228C117.866 122.097 117.46 121.957 116.9 121.808C116.322 121.668 115.846 121.523 115.472 121.374C115.108 121.225 114.791 120.996 114.52 120.688C114.259 120.38 114.128 119.965 114.128 119.442C114.128 119.013 114.25 118.621 114.492 118.266C114.744 117.911 115.099 117.631 115.556 117.426C116.023 117.221 116.569 117.118 117.194 117.118C118.118 117.118 118.856 117.351 119.406 117.818C119.957 118.275 120.26 118.896 120.316 119.68H118.44C118.412 119.372 118.282 119.129 118.048 118.952C117.824 118.765 117.521 118.672 117.138 118.672C116.784 118.672 116.508 118.737 116.312 118.868C116.126 118.999 116.032 119.181 116.032 119.414C116.032 119.675 116.163 119.876 116.424 120.016C116.686 120.147 117.092 120.282 117.642 120.422C118.202 120.562 118.664 120.707 119.028 120.856C119.392 121.005 119.705 121.239 119.966 121.556C120.237 121.864 120.377 122.275 120.386 122.788C120.386 123.236 120.26 123.637 120.008 123.992C119.766 124.347 119.411 124.627 118.944 124.832C118.487 125.028 117.95 125.126 117.334 125.126Z" fill="#657286"/>
</g>
</g>
<defs>
<filter id="filter0_dd_1_7773" x="0" y="0" width="589" height="162" filterUnits="userSpaceOnUse" color-interpolation-filters="sRGB">
<feFlood flood-opacity="0" result="BackgroundImageFix"/>
<feColorMatrix in="SourceAlpha" type="matrix" values="0 0 0 0 0 0 0 0 0 0 0 0 0 0 0 0 0 0 127 0" result="hardAlpha"/>
<feOffset dy="1"/>
<feGaussianBlur stdDeviation="1"/>
<feColorMatrix type="matrix" values="0 0 0 0 0.0627451 0 0 0 0 0.0941176 0 0 0 0 0.156863 0 0 0 0.06 0"/>
<feBlend mode="normal" in2="BackgroundImageFix" result="effect1_dropShadow_1_7773"/>
<feColorMatrix in="SourceAlpha" type="matrix" values="0 0 0 0 0 0 0 0 0 0 0 0 0 0 0 0 0 0 127 0" result="hardAlpha"/>
<feOffset dy="1"/>
<feGaussianBlur stdDeviation="1.5"/>
<feColorMatrix type="matrix" values="0 0 0 0 0.0627451 0 0 0 0 0.0941176 0 0 0 0 0.156863 0 0 0 0.1 0"/>
<feBlend mode="normal" in2="effect1_dropShadow_1_7773" result="effect2_dropShadow_1_7773"/>
<feBlend mode="normal" in="SourceGraphic" in2="effect2_dropShadow_1_7773" result="shape"/>
</filter>
<filter id="filter1_d_1_7773" x="17" y="101" width="119" height="40" filterUnits="userSpaceOnUse" color-interpolation-filters="sRGB">
<feFlood flood-opacity="0" result="BackgroundImageFix"/>
<feColorMatrix in="SourceAlpha" type="matrix" values="0 0 0 0 0 0 0 0 0 0 0 0 0 0 0 0 0 0 127 0" result="hardAlpha"/>
<feOffset dy="1"/>
<feGaussianBlur stdDeviation="1"/>
<feComposite in2="hardAlpha" operator="out"/>
<feColorMatrix type="matrix" values="0 0 0 0 0.0627451 0 0 0 0 0.0941176 0 0 0 0 0.156863 0 0 0 0.05 0"/>
<feBlend mode="normal" in2="BackgroundImageFix" result="effect1_dropShadow_1_7773"/>
<feBlend mode="normal" in="SourceGraphic" in2="effect1_dropShadow_1_7773" result="shape"/>
</filter>
</defs>
</svg>
