<svg width="467" height="86" viewBox="0 0 467 86" fill="none" xmlns="http://www.w3.org/2000/svg">
<g filter="url(#filter0_dd_1_2102)">
<rect x="3" y="2" width="81" height="80" rx="16" fill="white"/>
<path d="M26.488 23.624L23.656 29.084V32H21.976V29.084L19.132 23.624H21.028L22.828 27.452L24.616 23.624H26.488ZM30.4089 32.108C29.7689 32.108 29.1929 31.968 28.6809 31.688C28.1689 31.4 27.7649 30.996 27.4689 30.476C27.1809 29.956 27.0369 29.356 27.0369 28.676C27.0369 27.996 27.1849 27.396 27.4809 26.876C27.7849 26.356 28.1969 25.956 28.7169 25.676C29.2369 25.388 29.8169 25.244 30.4569 25.244C31.0969 25.244 31.6769 25.388 32.1969 25.676C32.7169 25.956 33.1249 26.356 33.4209 26.876C33.7249 27.396 33.8769 27.996 33.8769 28.676C33.8769 29.356 33.7209 29.956 33.4089 30.476C33.1049 30.996 32.6889 31.4 32.1609 31.688C31.6409 31.968 31.0569 32.108 30.4089 32.108ZM30.4089 30.644C30.7129 30.644 30.9969 30.572 31.2609 30.428C31.5329 30.276 31.7489 30.052 31.9089 29.756C32.0689 29.46 32.1489 29.1 32.1489 28.676C32.1489 28.044 31.9809 27.56 31.6449 27.224C31.3169 26.88 30.9129 26.708 30.4329 26.708C29.9529 26.708 29.5489 26.88 29.2209 27.224C28.9009 27.56 28.7409 28.044 28.7409 28.676C28.7409 29.308 28.8969 29.796 29.2089 30.14C29.5289 30.476 29.9289 30.644 30.4089 30.644ZM41.3853 25.352V32H39.6933V31.16C39.4773 31.448 39.1933 31.676 38.8413 31.844C38.4973 32.004 38.1213 32.084 37.7133 32.084C37.1933 32.084 36.7333 31.976 36.3333 31.76C35.9333 31.536 35.6173 31.212 35.3853 30.788C35.1613 30.356 35.0493 29.844 35.0493 29.252V25.352H36.7293V29.012C36.7293 29.54 36.8613 29.948 37.1253 30.236C37.3893 30.516 37.7493 30.656 38.2053 30.656C38.6693 30.656 39.0333 30.516 39.2973 30.236C39.5613 29.948 39.6933 29.54 39.6933 29.012V25.352H41.3853Z" fill="#657286"/>
<path d="M19.658 57.012V55.472L24.236 48.92H26.518V55.304H27.75V57.012H26.518V59H24.558V57.012H19.658ZM24.684 51.02L21.814 55.304H24.684V51.02ZM28.9139 57.012V55.472L33.4919 48.92H35.7739V55.304H37.0059V57.012H35.7739V59H33.8139V57.012H28.9139ZM33.9399 51.02L31.0699 55.304H33.9399V51.02ZM48.4497 50.488H43.9137V52.882C44.1097 52.6393 44.3897 52.4433 44.7537 52.294C45.1177 52.1353 45.505 52.056 45.9157 52.056C46.6623 52.056 47.2737 52.2193 47.7497 52.546C48.2257 52.8727 48.571 53.2927 48.7857 53.806C49.0003 54.31 49.1077 54.8513 49.1077 55.43C49.1077 56.5033 48.7997 57.3667 48.1837 58.02C47.577 58.6733 46.709 59 45.5797 59C44.5157 59 43.6663 58.734 43.0317 58.202C42.397 57.67 42.0377 56.9747 41.9537 56.116H43.8577C43.9417 56.4893 44.1283 56.788 44.4177 57.012C44.7163 57.236 45.0943 57.348 45.5517 57.348C46.1023 57.348 46.5177 57.1753 46.7977 56.83C47.0777 56.4847 47.2177 56.0273 47.2177 55.458C47.2177 54.8793 47.073 54.4407 46.7837 54.142C46.5037 53.834 46.0883 53.68 45.5377 53.68C45.1457 53.68 44.819 53.778 44.5577 53.974C44.2963 54.17 44.1097 54.4313 43.9977 54.758H42.1217V48.766H48.4497V50.488ZM50.5154 57.012V55.472L55.0934 48.92H57.3754V55.304H58.6074V57.012H57.3754V59H55.4154V57.012H50.5154ZM55.5414 51.02L52.6714 55.304H55.5414V51.02ZM60.4713 56.788C61.3673 56.0413 62.0813 55.4207 62.6133 54.926C63.1453 54.422 63.5886 53.8993 63.9433 53.358C64.2979 52.8167 64.4753 52.2847 64.4753 51.762C64.4753 51.286 64.3633 50.9127 64.1393 50.642C63.9153 50.3713 63.5699 50.236 63.1033 50.236C62.6366 50.236 62.2773 50.3947 62.0253 50.712C61.7733 51.02 61.6426 51.4447 61.6333 51.986H59.7293C59.7666 50.866 60.0979 50.0167 60.7233 49.438C61.3579 48.8593 62.1606 48.57 63.1313 48.57C64.1953 48.57 65.0119 48.8547 65.5813 49.424C66.1506 49.984 66.4353 50.726 66.4353 51.65C66.4353 52.378 66.2393 53.0733 65.8473 53.736C65.4553 54.3987 65.0073 54.9773 64.5033 55.472C63.9993 55.9573 63.3413 56.5453 62.5293 57.236H66.6593V58.86H59.7433V57.404L60.4713 56.788Z" fill="#283449"/>
</g>
<g filter="url(#filter1_dd_1_2102)">
<rect x="108" y="2" width="232" height="80" rx="16" fill="white"/>
<path d="M130.936 26.216C130.936 26.664 130.828 27.084 130.612 27.476C130.404 27.868 130.072 28.184 129.616 28.424C129.168 28.664 128.6 28.784 127.912 28.784H126.508V32H124.828V23.624H127.912C128.56 23.624 129.112 23.736 129.568 23.96C130.024 24.184 130.364 24.492 130.588 24.884C130.82 25.276 130.936 25.72 130.936 26.216ZM127.84 27.428C128.304 27.428 128.648 27.324 128.872 27.116C129.096 26.9 129.208 26.6 129.208 26.216C129.208 25.4 128.752 24.992 127.84 24.992H126.508V27.428H127.84ZM133.809 26.384C134.025 26.032 134.305 25.756 134.649 25.556C135.001 25.356 135.401 25.256 135.849 25.256V27.02H135.405C134.877 27.02 134.477 27.144 134.205 27.392C133.941 27.64 133.809 28.072 133.809 28.688V32H132.129V25.352H133.809V26.384ZM139.932 32.108C139.292 32.108 138.716 31.968 138.204 31.688C137.692 31.4 137.288 30.996 136.992 30.476C136.704 29.956 136.56 29.356 136.56 28.676C136.56 27.996 136.708 27.396 137.004 26.876C137.308 26.356 137.72 25.956 138.24 25.676C138.76 25.388 139.34 25.244 139.98 25.244C140.62 25.244 141.2 25.388 141.72 25.676C142.24 25.956 142.648 26.356 142.944 26.876C143.248 27.396 143.4 27.996 143.4 28.676C143.4 29.356 143.244 29.956 142.932 30.476C142.628 30.996 142.212 31.4 141.684 31.688C141.164 31.968 140.58 32.108 139.932 32.108ZM139.932 30.644C140.236 30.644 140.52 30.572 140.784 30.428C141.056 30.276 141.272 30.052 141.432 29.756C141.592 29.46 141.672 29.1 141.672 28.676C141.672 28.044 141.504 27.56 141.168 27.224C140.84 26.88 140.436 26.708 139.956 26.708C139.476 26.708 139.072 26.88 138.744 27.224C138.424 27.56 138.264 28.044 138.264 28.676C138.264 29.308 138.42 29.796 138.732 30.14C139.052 30.476 139.452 30.644 139.932 30.644ZM144.201 28.652C144.201 27.98 144.333 27.384 144.597 26.864C144.869 26.344 145.237 25.944 145.701 25.664C146.165 25.384 146.681 25.244 147.249 25.244C147.681 25.244 148.093 25.34 148.485 25.532C148.877 25.716 149.189 25.964 149.421 26.276V23.12H151.125V32H149.421V31.016C149.213 31.344 148.921 31.608 148.545 31.808C148.169 32.008 147.733 32.108 147.237 32.108C146.677 32.108 146.165 31.964 145.701 31.676C145.237 31.388 144.869 30.984 144.597 30.464C144.333 29.936 144.201 29.332 144.201 28.652ZM149.433 28.676C149.433 28.268 149.353 27.92 149.193 27.632C149.033 27.336 148.817 27.112 148.545 26.96C148.273 26.8 147.981 26.72 147.669 26.72C147.357 26.72 147.069 26.796 146.805 26.948C146.541 27.1 146.325 27.324 146.157 27.62C145.997 27.908 145.917 28.252 145.917 28.652C145.917 29.052 145.997 29.404 146.157 29.708C146.325 30.004 146.541 30.232 146.805 30.392C147.077 30.552 147.365 30.632 147.669 30.632C147.981 30.632 148.273 30.556 148.545 30.404C148.817 30.244 149.033 30.02 149.193 29.732C149.353 29.436 149.433 29.084 149.433 28.676ZM159.042 25.352V32H157.35V31.16C157.134 31.448 156.85 31.676 156.498 31.844C156.154 32.004 155.778 32.084 155.37 32.084C154.85 32.084 154.39 31.976 153.99 31.76C153.59 31.536 153.274 31.212 153.042 30.788C152.818 30.356 152.706 29.844 152.706 29.252V25.352H154.386V29.012C154.386 29.54 154.518 29.948 154.782 30.236C155.046 30.516 155.406 30.656 155.862 30.656C156.326 30.656 156.69 30.516 156.954 30.236C157.218 29.948 157.35 29.54 157.35 29.012V25.352H159.042ZM160.267 28.676C160.267 27.988 160.407 27.388 160.687 26.876C160.967 26.356 161.355 25.956 161.851 25.676C162.347 25.388 162.915 25.244 163.555 25.244C164.379 25.244 165.059 25.452 165.595 25.868C166.139 26.276 166.503 26.852 166.687 27.596H164.875C164.779 27.308 164.615 27.084 164.383 26.924C164.159 26.756 163.879 26.672 163.543 26.672C163.063 26.672 162.683 26.848 162.403 27.2C162.123 27.544 161.983 28.036 161.983 28.676C161.983 29.308 162.123 29.8 162.403 30.152C162.683 30.496 163.063 30.668 163.543 30.668C164.223 30.668 164.667 30.364 164.875 29.756H166.687C166.503 30.476 166.139 31.048 165.595 31.472C165.051 31.896 164.371 32.108 163.555 32.108C162.915 32.108 162.347 31.968 161.851 31.688C161.355 31.4 160.967 31 160.687 30.488C160.407 29.968 160.267 29.364 160.267 28.676ZM169.874 26.732V29.948C169.874 30.172 169.926 30.336 170.03 30.44C170.142 30.536 170.326 30.584 170.582 30.584H171.362V32H170.306C168.89 32 168.182 31.312 168.182 29.936V26.732H167.39V25.352H168.182V23.708H169.874V25.352H171.362V26.732H169.874ZM181.874 32L180.962 31.1C180.186 31.796 179.238 32.144 178.118 32.144C177.502 32.144 176.958 32.04 176.486 31.832C176.022 31.616 175.662 31.316 175.406 30.932C175.15 30.54 175.022 30.088 175.022 29.576C175.022 29.024 175.178 28.528 175.49 28.088C175.802 27.648 176.262 27.292 176.87 27.02C176.654 26.756 176.498 26.504 176.402 26.264C176.306 26.016 176.258 25.752 176.258 25.472C176.258 25.088 176.358 24.744 176.558 24.44C176.758 24.128 177.042 23.884 177.41 23.708C177.786 23.532 178.222 23.444 178.718 23.444C179.222 23.444 179.654 23.54 180.014 23.732C180.374 23.924 180.642 24.18 180.818 24.5C180.994 24.82 181.07 25.176 181.046 25.568H179.414C179.422 25.304 179.358 25.104 179.222 24.968C179.086 24.824 178.902 24.752 178.67 24.752C178.446 24.752 178.258 24.82 178.106 24.956C177.962 25.084 177.89 25.252 177.89 25.46C177.89 25.66 177.95 25.86 178.07 26.06C178.19 26.252 178.386 26.492 178.658 26.78L180.77 28.868C180.786 28.852 180.798 28.836 180.806 28.82C180.814 28.804 180.822 28.788 180.83 28.772L181.514 27.632H183.266L182.426 29.108C182.266 29.42 182.094 29.716 181.91 29.996L183.938 32H181.874ZM178.166 30.752C178.822 30.752 179.402 30.52 179.906 30.056L177.842 28.016C177.066 28.36 176.678 28.848 176.678 29.48C176.678 29.84 176.814 30.144 177.086 30.392C177.358 30.632 177.718 30.752 178.166 30.752ZM189.309 24.98V27.08H192.129V28.412H189.309V30.632H192.489V32H187.629V23.612H192.489V24.98H189.309ZM197.7 25.256C198.492 25.256 199.132 25.508 199.62 26.012C200.108 26.508 200.352 27.204 200.352 28.1V32H198.672V28.328C198.672 27.8 198.54 27.396 198.276 27.116C198.012 26.828 197.652 26.684 197.196 26.684C196.732 26.684 196.364 26.828 196.092 27.116C195.828 27.396 195.696 27.8 195.696 28.328V32H194.016V25.352H195.696V26.18C195.92 25.892 196.204 25.668 196.548 25.508C196.9 25.34 197.284 25.256 197.7 25.256ZM204.553 25.244C205.049 25.244 205.485 25.344 205.861 25.544C206.237 25.736 206.533 25.988 206.749 26.3V25.352H208.441V32.048C208.441 32.664 208.317 33.212 208.069 33.692C207.821 34.18 207.449 34.564 206.953 34.844C206.457 35.132 205.857 35.276 205.153 35.276C204.209 35.276 203.433 35.056 202.825 34.616C202.225 34.176 201.885 33.576 201.805 32.816H203.473C203.561 33.12 203.749 33.36 204.037 33.536C204.333 33.72 204.689 33.812 205.105 33.812C205.593 33.812 205.989 33.664 206.293 33.368C206.597 33.08 206.749 32.64 206.749 32.048V31.016C206.533 31.328 206.233 31.588 205.849 31.796C205.473 32.004 205.041 32.108 204.553 32.108C203.993 32.108 203.481 31.964 203.017 31.676C202.553 31.388 202.185 30.984 201.913 30.464C201.649 29.936 201.517 29.332 201.517 28.652C201.517 27.98 201.649 27.384 201.913 26.864C202.185 26.344 202.549 25.944 203.005 25.664C203.469 25.384 203.985 25.244 204.553 25.244ZM206.749 28.676C206.749 28.268 206.669 27.92 206.509 27.632C206.349 27.336 206.133 27.112 205.861 26.96C205.589 26.8 205.297 26.72 204.985 26.72C204.673 26.72 204.385 26.796 204.121 26.948C203.857 27.1 203.641 27.324 203.473 27.62C203.313 27.908 203.233 28.252 203.233 28.652C203.233 29.052 203.313 29.404 203.473 29.708C203.641 30.004 203.857 30.232 204.121 30.392C204.393 30.552 204.681 30.632 204.985 30.632C205.297 30.632 205.589 30.556 205.861 30.404C206.133 30.244 206.349 30.02 206.509 29.732C206.669 29.436 206.749 29.084 206.749 28.676ZM210.934 24.56C210.638 24.56 210.39 24.468 210.19 24.284C209.998 24.092 209.902 23.856 209.902 23.576C209.902 23.296 209.998 23.064 210.19 22.88C210.39 22.688 210.638 22.592 210.934 22.592C211.23 22.592 211.474 22.688 211.666 22.88C211.866 23.064 211.966 23.296 211.966 23.576C211.966 23.856 211.866 24.092 211.666 24.284C211.474 24.468 211.23 24.56 210.934 24.56ZM211.762 25.352V32H210.082V25.352H211.762ZM217.106 25.256C217.898 25.256 218.538 25.508 219.026 26.012C219.514 26.508 219.758 27.204 219.758 28.1V32H218.078V28.328C218.078 27.8 217.946 27.396 217.682 27.116C217.418 26.828 217.058 26.684 216.602 26.684C216.138 26.684 215.77 26.828 215.498 27.116C215.234 27.396 215.102 27.8 215.102 28.328V32H213.422V25.352H215.102V26.18C215.326 25.892 215.61 25.668 215.954 25.508C216.306 25.34 216.69 25.256 217.106 25.256ZM227.535 28.532C227.535 28.772 227.519 28.988 227.487 29.18H222.627C222.667 29.66 222.835 30.036 223.131 30.308C223.427 30.58 223.791 30.716 224.223 30.716C224.847 30.716 225.291 30.448 225.555 29.912H227.367C227.175 30.552 226.807 31.08 226.263 31.496C225.719 31.904 225.051 32.108 224.259 32.108C223.619 32.108 223.043 31.968 222.531 31.688C222.027 31.4 221.631 30.996 221.343 30.476C221.063 29.956 220.923 29.356 220.923 28.676C220.923 27.988 221.063 27.384 221.343 26.864C221.623 26.344 222.015 25.944 222.519 25.664C223.023 25.384 223.603 25.244 224.259 25.244C224.891 25.244 225.455 25.38 225.951 25.652C226.455 25.924 226.843 26.312 227.115 26.816C227.395 27.312 227.535 27.884 227.535 28.532ZM225.795 28.052C225.787 27.62 225.631 27.276 225.327 27.02C225.023 26.756 224.651 26.624 224.211 26.624C223.795 26.624 223.443 26.752 223.155 27.008C222.875 27.256 222.703 27.604 222.639 28.052H225.795ZM234.942 28.532C234.942 28.772 234.926 28.988 234.894 29.18H230.034C230.074 29.66 230.242 30.036 230.538 30.308C230.834 30.58 231.198 30.716 231.63 30.716C232.254 30.716 232.698 30.448 232.962 29.912H234.774C234.582 30.552 234.214 31.08 233.67 31.496C233.126 31.904 232.458 32.108 231.666 32.108C231.026 32.108 230.45 31.968 229.938 31.688C229.434 31.4 229.038 30.996 228.75 30.476C228.47 29.956 228.33 29.356 228.33 28.676C228.33 27.988 228.47 27.384 228.75 26.864C229.03 26.344 229.422 25.944 229.926 25.664C230.43 25.384 231.01 25.244 231.666 25.244C232.298 25.244 232.862 25.38 233.358 25.652C233.862 25.924 234.25 26.312 234.522 26.816C234.802 27.312 234.942 27.884 234.942 28.532ZM233.202 28.052C233.194 27.62 233.038 27.276 232.734 27.02C232.43 26.756 232.058 26.624 231.618 26.624C231.202 26.624 230.85 26.752 230.562 27.008C230.282 27.256 230.11 27.604 230.046 28.052H233.202ZM237.848 26.384C238.064 26.032 238.344 25.756 238.688 25.556C239.04 25.356 239.44 25.256 239.888 25.256V27.02H239.444C238.916 27.02 238.516 27.144 238.244 27.392C237.98 27.64 237.848 28.072 237.848 28.688V32H236.168V25.352H237.848V26.384ZM241.871 24.56C241.575 24.56 241.327 24.468 241.127 24.284C240.935 24.092 240.839 23.856 240.839 23.576C240.839 23.296 240.935 23.064 241.127 22.88C241.327 22.688 241.575 22.592 241.871 22.592C242.167 22.592 242.411 22.688 242.603 22.88C242.803 23.064 242.903 23.296 242.903 23.576C242.903 23.856 242.803 24.092 242.603 24.284C242.411 24.468 242.167 24.56 241.871 24.56ZM242.699 25.352V32H241.019V25.352H242.699ZM248.043 25.256C248.835 25.256 249.475 25.508 249.963 26.012C250.451 26.508 250.695 27.204 250.695 28.1V32H249.015V28.328C249.015 27.8 248.883 27.396 248.619 27.116C248.355 26.828 247.995 26.684 247.539 26.684C247.075 26.684 246.707 26.828 246.435 27.116C246.171 27.396 246.039 27.8 246.039 28.328V32H244.359V25.352H246.039V26.18C246.263 25.892 246.547 25.668 246.891 25.508C247.243 25.34 247.627 25.256 248.043 25.256ZM254.897 25.244C255.393 25.244 255.829 25.344 256.205 25.544C256.581 25.736 256.877 25.988 257.093 26.3V25.352H258.785V32.048C258.785 32.664 258.661 33.212 258.413 33.692C258.165 34.18 257.793 34.564 257.297 34.844C256.801 35.132 256.201 35.276 255.497 35.276C254.553 35.276 253.777 35.056 253.169 34.616C252.569 34.176 252.229 33.576 252.149 32.816H253.817C253.905 33.12 254.093 33.36 254.381 33.536C254.677 33.72 255.033 33.812 255.449 33.812C255.937 33.812 256.333 33.664 256.637 33.368C256.941 33.08 257.093 32.64 257.093 32.048V31.016C256.877 31.328 256.577 31.588 256.193 31.796C255.817 32.004 255.385 32.108 254.897 32.108C254.337 32.108 253.825 31.964 253.361 31.676C252.897 31.388 252.529 30.984 252.257 30.464C251.993 29.936 251.861 29.332 251.861 28.652C251.861 27.98 251.993 27.384 252.257 26.864C252.529 26.344 252.893 25.944 253.349 25.664C253.813 25.384 254.329 25.244 254.897 25.244ZM257.093 28.676C257.093 28.268 257.013 27.92 256.853 27.632C256.693 27.336 256.477 27.112 256.205 26.96C255.933 26.8 255.641 26.72 255.329 26.72C255.017 26.72 254.729 26.796 254.465 26.948C254.201 27.1 253.985 27.324 253.817 27.62C253.657 27.908 253.577 28.252 253.577 28.652C253.577 29.052 253.657 29.404 253.817 29.708C253.985 30.004 254.201 30.232 254.465 30.392C254.737 30.552 255.025 30.632 255.329 30.632C255.641 30.632 255.933 30.556 256.205 30.404C256.477 30.244 256.693 30.02 256.853 29.732C257.013 29.436 257.093 29.084 257.093 28.676Z" fill="#657286"/>
<path d="M124.658 57.012V55.472L129.236 48.92H131.518V55.304H132.75V57.012H131.518V59H129.558V57.012H124.658ZM129.684 51.02L126.814 55.304H129.684V51.02ZM134.026 51.482C134.073 50.5487 134.399 49.83 135.006 49.326C135.622 48.8127 136.429 48.556 137.428 48.556C138.109 48.556 138.693 48.6773 139.178 48.92C139.663 49.1533 140.027 49.4753 140.27 49.886C140.522 50.2873 140.648 50.7447 140.648 51.258C140.648 51.846 140.494 52.3453 140.186 52.756C139.887 53.1573 139.528 53.428 139.108 53.568V53.624C139.649 53.792 140.069 54.0907 140.368 54.52C140.676 54.9493 140.83 55.5 140.83 56.172C140.83 56.732 140.699 57.2313 140.438 57.67C140.186 58.1087 139.808 58.454 139.304 58.706C138.809 58.9487 138.212 59.07 137.512 59.07C136.457 59.07 135.599 58.804 134.936 58.272C134.273 57.74 133.923 56.956 133.886 55.92H135.79C135.809 56.3773 135.963 56.746 136.252 57.026C136.551 57.2967 136.957 57.432 137.47 57.432C137.946 57.432 138.31 57.3013 138.562 57.04C138.823 56.7693 138.954 56.424 138.954 56.004C138.954 55.444 138.777 55.0427 138.422 54.8C138.067 54.5573 137.517 54.436 136.77 54.436H136.364V52.826H136.77C138.095 52.826 138.758 52.3827 138.758 51.496C138.758 51.0947 138.637 50.782 138.394 50.558C138.161 50.334 137.82 50.222 137.372 50.222C136.933 50.222 136.593 50.3433 136.35 50.586C136.117 50.8193 135.981 51.118 135.944 51.482H134.026ZM142.995 56.788C143.891 56.0413 144.605 55.4207 145.137 54.926C145.669 54.422 146.112 53.8993 146.467 53.358C146.821 52.8167 146.999 52.2847 146.999 51.762C146.999 51.286 146.887 50.9127 146.663 50.642C146.439 50.3713 146.093 50.236 145.627 50.236C145.16 50.236 144.801 50.3947 144.549 50.712C144.297 51.02 144.166 51.4447 144.157 51.986H142.253C142.29 50.866 142.621 50.0167 143.247 49.438C143.881 48.8593 144.684 48.57 145.655 48.57C146.719 48.57 147.535 48.8547 148.105 49.424C148.674 49.984 148.959 50.726 148.959 51.65C148.959 52.378 148.763 53.0733 148.371 53.736C147.979 54.3987 147.531 54.9773 147.027 55.472C146.523 55.9573 145.865 56.5453 145.053 57.236H149.183V58.86H142.267V57.404L142.995 56.788ZM156.022 56.13C156.096 56.5407 156.264 56.858 156.526 57.082C156.796 57.2967 157.156 57.404 157.604 57.404C158.182 57.404 158.602 57.166 158.864 56.69C159.125 56.2047 159.256 55.3927 159.256 54.254C159.041 54.5527 158.738 54.786 158.346 54.954C157.963 55.122 157.548 55.206 157.1 55.206C156.502 55.206 155.961 55.0847 155.476 54.842C155 54.59 154.622 54.2213 154.342 53.736C154.062 53.2413 153.922 52.644 153.922 51.944C153.922 50.908 154.23 50.0867 154.846 49.48C155.462 48.864 156.302 48.556 157.366 48.556C158.691 48.556 159.624 48.9807 160.166 49.83C160.716 50.6793 160.992 51.958 160.992 53.666C160.992 54.8793 160.884 55.8733 160.67 56.648C160.464 57.4227 160.105 58.0107 159.592 58.412C159.088 58.8133 158.397 59.014 157.52 59.014C156.829 59.014 156.241 58.8833 155.756 58.622C155.27 58.3513 154.897 58.0013 154.636 57.572C154.384 57.1333 154.239 56.6527 154.202 56.13H156.022ZM157.506 53.61C157.991 53.61 158.374 53.4607 158.654 53.162C158.934 52.8633 159.074 52.462 159.074 51.958C159.074 51.4073 158.924 50.9827 158.626 50.684C158.336 50.376 157.94 50.222 157.436 50.222C156.932 50.222 156.53 50.3807 156.232 50.698C155.942 51.006 155.798 51.4167 155.798 51.93C155.798 52.4247 155.938 52.8307 156.218 53.148C156.507 53.456 156.936 53.61 157.506 53.61ZM167.809 51.342C167.716 50.95 167.553 50.656 167.319 50.46C167.095 50.264 166.769 50.166 166.339 50.166C165.695 50.166 165.219 50.4273 164.911 50.95C164.613 51.4633 164.459 52.3033 164.449 53.47C164.673 53.0967 165 52.8073 165.429 52.602C165.859 52.3873 166.325 52.28 166.829 52.28C167.436 52.28 167.973 52.4107 168.439 52.672C168.906 52.9333 169.27 53.316 169.531 53.82C169.793 54.3147 169.923 54.912 169.923 55.612C169.923 56.2747 169.788 56.8673 169.517 57.39C169.256 57.9033 168.869 58.3047 168.355 58.594C167.842 58.8833 167.231 59.028 166.521 59.028C165.551 59.028 164.785 58.8133 164.225 58.384C163.675 57.9547 163.287 57.3573 163.063 56.592C162.849 55.8173 162.741 54.8653 162.741 53.736C162.741 52.028 163.035 50.74 163.623 49.872C164.211 48.9947 165.14 48.556 166.409 48.556C167.389 48.556 168.15 48.822 168.691 49.354C169.233 49.886 169.545 50.5487 169.629 51.342H167.809ZM166.381 53.89C165.887 53.89 165.471 54.0347 165.135 54.324C164.799 54.6133 164.631 55.0333 164.631 55.584C164.631 56.1347 164.785 56.5687 165.093 56.886C165.411 57.2033 165.854 57.362 166.423 57.362C166.927 57.362 167.324 57.208 167.613 56.9C167.912 56.592 168.061 56.1767 168.061 55.654C168.061 55.1127 167.917 54.6833 167.627 54.366C167.347 54.0487 166.932 53.89 166.381 53.89ZM178.332 50.488H173.796V52.882C173.992 52.6393 174.272 52.4433 174.636 52.294C175 52.1353 175.388 52.056 175.798 52.056C176.545 52.056 177.156 52.2193 177.632 52.546C178.108 52.8727 178.454 53.2927 178.668 53.806C178.883 54.31 178.99 54.8513 178.99 55.43C178.99 56.5033 178.682 57.3667 178.066 58.02C177.46 58.6733 176.592 59 175.462 59C174.398 59 173.549 58.734 172.914 58.202C172.28 57.67 171.92 56.9747 171.836 56.116H173.74C173.824 56.4893 174.011 56.788 174.3 57.012C174.599 57.236 174.977 57.348 175.434 57.348C175.985 57.348 176.4 57.1753 176.68 56.83C176.96 56.4847 177.1 56.0273 177.1 55.458C177.1 54.8793 176.956 54.4407 176.666 54.142C176.386 53.834 175.971 53.68 175.42 53.68C175.028 53.68 174.702 53.778 174.44 53.974C174.179 54.17 173.992 54.4313 173.88 54.758H172.004V48.766H178.332V50.488Z" fill="#283449"/>
</g>
<g filter="url(#filter2_dd_1_2102)">
<rect x="364" y="2" width="100" height="80" rx="16" fill="white"/>
<path d="M382.508 24.98V27.08H385.328V28.412H382.508V30.632H385.688V32H380.828V23.612H385.688V24.98H382.508ZM388.895 23.12V32H387.215V23.12H388.895ZM396.735 28.532C396.735 28.772 396.719 28.988 396.687 29.18H391.827C391.867 29.66 392.035 30.036 392.331 30.308C392.627 30.58 392.991 30.716 393.423 30.716C394.047 30.716 394.491 30.448 394.755 29.912H396.567C396.375 30.552 396.007 31.08 395.463 31.496C394.919 31.904 394.251 32.108 393.459 32.108C392.819 32.108 392.243 31.968 391.731 31.688C391.227 31.4 390.831 30.996 390.543 30.476C390.263 29.956 390.123 29.356 390.123 28.676C390.123 27.988 390.263 27.384 390.543 26.864C390.823 26.344 391.215 25.944 391.719 25.664C392.223 25.384 392.803 25.244 393.459 25.244C394.091 25.244 394.655 25.38 395.151 25.652C395.655 25.924 396.043 26.312 396.315 26.816C396.595 27.312 396.735 27.884 396.735 28.532ZM394.995 28.052C394.987 27.62 394.831 27.276 394.527 27.02C394.223 26.756 393.851 26.624 393.411 26.624C392.995 26.624 392.643 26.752 392.355 27.008C392.075 27.256 391.903 27.604 391.839 28.052H394.995ZM399.917 26.732V29.948C399.917 30.172 399.969 30.336 400.073 30.44C400.185 30.536 400.369 30.584 400.625 30.584H401.405V32H400.349C398.933 32 398.225 31.312 398.225 29.936V26.732H397.433V25.352H398.225V23.708H399.917V25.352H401.405V26.732H399.917ZM403.465 24.56C403.169 24.56 402.921 24.468 402.721 24.284C402.529 24.092 402.433 23.856 402.433 23.576C402.433 23.296 402.529 23.064 402.721 22.88C402.921 22.688 403.169 22.592 403.465 22.592C403.761 22.592 404.005 22.688 404.197 22.88C404.397 23.064 404.497 23.296 404.497 23.576C404.497 23.856 404.397 24.092 404.197 24.284C404.005 24.468 403.761 24.56 403.465 24.56ZM404.293 25.352V32H402.613V25.352H404.293ZM408.725 30.452L410.405 25.352H412.193L409.733 32H407.693L405.245 25.352H407.045L408.725 30.452ZM419.317 28.532C419.317 28.772 419.301 28.988 419.269 29.18H414.409C414.449 29.66 414.617 30.036 414.913 30.308C415.209 30.58 415.573 30.716 416.005 30.716C416.629 30.716 417.073 30.448 417.337 29.912H419.149C418.957 30.552 418.589 31.08 418.045 31.496C417.501 31.904 416.833 32.108 416.041 32.108C415.401 32.108 414.825 31.968 414.313 31.688C413.809 31.4 413.413 30.996 413.125 30.476C412.845 29.956 412.705 29.356 412.705 28.676C412.705 27.988 412.845 27.384 413.125 26.864C413.405 26.344 413.797 25.944 414.301 25.664C414.805 25.384 415.385 25.244 416.041 25.244C416.673 25.244 417.237 25.38 417.733 25.652C418.237 25.924 418.625 26.312 418.897 26.816C419.177 27.312 419.317 27.884 419.317 28.532ZM417.577 28.052C417.569 27.62 417.413 27.276 417.109 27.02C416.805 26.756 416.433 26.624 415.993 26.624C415.577 26.624 415.225 26.752 414.937 27.008C414.657 27.256 414.485 27.604 414.421 28.052H417.577Z" fill="#657286"/>
<path d="M381.358 56.788C382.254 56.0413 382.968 55.4207 383.5 54.926C384.032 54.422 384.475 53.8993 384.83 53.358C385.185 52.8167 385.362 52.2847 385.362 51.762C385.362 51.286 385.25 50.9127 385.026 50.642C384.802 50.3713 384.457 50.236 383.99 50.236C383.523 50.236 383.164 50.3947 382.912 50.712C382.66 51.02 382.529 51.4447 382.52 51.986H380.616C380.653 50.866 380.985 50.0167 381.61 49.438C382.245 48.8593 383.047 48.57 384.018 48.57C385.082 48.57 385.899 48.8547 386.468 49.424C387.037 49.984 387.322 50.726 387.322 51.65C387.322 52.378 387.126 53.0733 386.734 53.736C386.342 54.3987 385.894 54.9773 385.39 55.472C384.886 55.9573 384.228 56.5453 383.416 57.236H387.546V58.86H380.63V57.404L381.358 56.788ZM392.145 51.482C392.192 50.5487 392.518 49.83 393.125 49.326C393.741 48.8127 394.548 48.556 395.547 48.556C396.228 48.556 396.812 48.6773 397.297 48.92C397.782 49.1533 398.146 49.4753 398.389 49.886C398.641 50.2873 398.767 50.7447 398.767 51.258C398.767 51.846 398.613 52.3453 398.305 52.756C398.006 53.1573 397.647 53.428 397.227 53.568V53.624C397.768 53.792 398.188 54.0907 398.487 54.52C398.795 54.9493 398.949 55.5 398.949 56.172C398.949 56.732 398.818 57.2313 398.557 57.67C398.305 58.1087 397.927 58.454 397.423 58.706C396.928 58.9487 396.331 59.07 395.631 59.07C394.576 59.07 393.718 58.804 393.055 58.272C392.392 57.74 392.042 56.956 392.005 55.92H393.909C393.928 56.3773 394.082 56.746 394.371 57.026C394.67 57.2967 395.076 57.432 395.589 57.432C396.065 57.432 396.429 57.3013 396.681 57.04C396.942 56.7693 397.073 56.424 397.073 56.004C397.073 55.444 396.896 55.0427 396.541 54.8C396.186 54.5573 395.636 54.436 394.889 54.436H394.483V52.826H394.889C396.214 52.826 396.877 52.3827 396.877 51.496C396.877 51.0947 396.756 50.782 396.513 50.558C396.28 50.334 395.939 50.222 395.491 50.222C395.052 50.222 394.712 50.3433 394.469 50.586C394.236 50.8193 394.1 51.118 394.063 51.482H392.145ZM405.79 51.342C405.697 50.95 405.533 50.656 405.3 50.46C405.076 50.264 404.749 50.166 404.32 50.166C403.676 50.166 403.2 50.4273 402.892 50.95C402.593 51.4633 402.439 52.3033 402.43 53.47C402.654 53.0967 402.981 52.8073 403.41 52.602C403.839 52.3873 404.306 52.28 404.81 52.28C405.417 52.28 405.953 52.4107 406.42 52.672C406.887 52.9333 407.251 53.316 407.512 53.82C407.773 54.3147 407.904 54.912 407.904 55.612C407.904 56.2747 407.769 56.8673 407.498 57.39C407.237 57.9033 406.849 58.3047 406.336 58.594C405.823 58.8833 405.211 59.028 404.502 59.028C403.531 59.028 402.766 58.8133 402.206 58.384C401.655 57.9547 401.268 57.3573 401.044 56.592C400.829 55.8173 400.722 54.8653 400.722 53.736C400.722 52.028 401.016 50.74 401.604 49.872C402.192 48.9947 403.121 48.556 404.39 48.556C405.37 48.556 406.131 48.822 406.672 49.354C407.213 49.886 407.526 50.5487 407.61 51.342H405.79ZM404.362 53.89C403.867 53.89 403.452 54.0347 403.116 54.324C402.78 54.6133 402.612 55.0333 402.612 55.584C402.612 56.1347 402.766 56.5687 403.074 56.886C403.391 57.2033 403.835 57.362 404.404 57.362C404.908 57.362 405.305 57.208 405.594 56.9C405.893 56.592 406.042 56.1767 406.042 55.654C406.042 55.1127 405.897 54.6833 405.608 54.366C405.328 54.0487 404.913 53.89 404.362 53.89ZM409.369 57.012V55.472L413.947 48.92H416.229V55.304H417.461V57.012H416.229V59H414.269V57.012H409.369ZM414.395 51.02L411.525 55.304H414.395V51.02ZM421.961 57.012V55.472L426.539 48.92H428.821V55.304H430.053V57.012H428.821V59H426.861V57.012H421.961ZM426.987 51.02L424.117 55.304H426.987V51.02ZM431.329 51.482C431.375 50.5487 431.702 49.83 432.309 49.326C432.925 48.8127 433.732 48.556 434.731 48.556C435.412 48.556 435.995 48.6773 436.481 48.92C436.966 49.1533 437.33 49.4753 437.573 49.886C437.825 50.2873 437.951 50.7447 437.951 51.258C437.951 51.846 437.797 52.3453 437.489 52.756C437.19 53.1573 436.831 53.428 436.411 53.568V53.624C436.952 53.792 437.372 54.0907 437.671 54.52C437.979 54.9493 438.133 55.5 438.133 56.172C438.133 56.732 438.002 57.2313 437.741 57.67C437.489 58.1087 437.111 58.454 436.607 58.706C436.112 58.9487 435.515 59.07 434.815 59.07C433.76 59.07 432.901 58.804 432.239 58.272C431.576 57.74 431.226 56.956 431.189 55.92H433.093C433.111 56.3773 433.265 56.746 433.555 57.026C433.853 57.2967 434.259 57.432 434.773 57.432C435.249 57.432 435.613 57.3013 435.865 57.04C436.126 56.7693 436.257 56.424 436.257 56.004C436.257 55.444 436.079 55.0427 435.725 54.8C435.37 54.5573 434.819 54.436 434.073 54.436H433.667V52.826H434.073C435.398 52.826 436.061 52.3827 436.061 51.496C436.061 51.0947 435.939 50.782 435.697 50.558C435.463 50.334 435.123 50.222 434.675 50.222C434.236 50.222 433.895 50.3433 433.653 50.586C433.419 50.8193 433.284 51.118 433.247 51.482H431.329ZM446.541 50.488H442.005V52.882C442.201 52.6393 442.481 52.4433 442.845 52.294C443.209 52.1353 443.597 52.056 444.007 52.056C444.754 52.056 445.365 52.2193 445.841 52.546C446.317 52.8727 446.663 53.2927 446.877 53.806C447.092 54.31 447.199 54.8513 447.199 55.43C447.199 56.5033 446.891 57.3667 446.275 58.02C445.669 58.6733 444.801 59 443.671 59C442.607 59 441.758 58.734 441.123 58.202C440.489 57.67 440.129 56.9747 440.045 56.116H441.949C442.033 56.4893 442.22 56.788 442.509 57.012C442.808 57.236 443.186 57.348 443.643 57.348C444.194 57.348 444.609 57.1753 444.889 56.83C445.169 56.4847 445.309 56.0273 445.309 55.458C445.309 54.8793 445.165 54.4407 444.875 54.142C444.595 53.834 444.18 53.68 443.629 53.68C443.237 53.68 442.911 53.778 442.649 53.974C442.388 54.17 442.201 54.4313 442.089 54.758H440.213V48.766H446.541V50.488Z" fill="#283449"/>
<rect x="365" y="3" width="98" height="78" rx="15" stroke="#8091EE" stroke-width="2"/>
</g>
<defs>
<filter id="filter0_dd_1_2102" x="0" y="0" width="87" height="86" filterUnits="userSpaceOnUse" color-interpolation-filters="sRGB">
<feFlood flood-opacity="0" result="BackgroundImageFix"/>
<feColorMatrix in="SourceAlpha" type="matrix" values="0 0 0 0 0 0 0 0 0 0 0 0 0 0 0 0 0 0 127 0" result="hardAlpha"/>
<feOffset dy="1"/>
<feGaussianBlur stdDeviation="1"/>
<feColorMatrix type="matrix" values="0 0 0 0 0.0627451 0 0 0 0 0.0941176 0 0 0 0 0.156863 0 0 0 0.06 0"/>
<feBlend mode="normal" in2="BackgroundImageFix" result="effect1_dropShadow_1_2102"/>
<feColorMatrix in="SourceAlpha" type="matrix" values="0 0 0 0 0 0 0 0 0 0 0 0 0 0 0 0 0 0 127 0" result="hardAlpha"/>
<feOffset dy="1"/>
<feGaussianBlur stdDeviation="1.5"/>
<feColorMatrix type="matrix" values="0 0 0 0 0.0627451 0 0 0 0 0.0941176 0 0 0 0 0.156863 0 0 0 0.1 0"/>
<feBlend mode="normal" in2="effect1_dropShadow_1_2102" result="effect2_dropShadow_1_2102"/>
<feBlend mode="normal" in="SourceGraphic" in2="effect2_dropShadow_1_2102" result="shape"/>
</filter>
<filter id="filter1_dd_1_2102" x="105" y="0" width="238" height="86" filterUnits="userSpaceOnUse" color-interpolation-filters="sRGB">
<feFlood flood-opacity="0" result="BackgroundImageFix"/>
<feColorMatrix in="SourceAlpha" type="matrix" values="0 0 0 0 0 0 0 0 0 0 0 0 0 0 0 0 0 0 127 0" result="hardAlpha"/>
<feOffset dy="1"/>
<feGaussianBlur stdDeviation="1"/>
<feColorMatrix type="matrix" values="0 0 0 0 0.0627451 0 0 0 0 0.0941176 0 0 0 0 0.156863 0 0 0 0.06 0"/>
<feBlend mode="normal" in2="BackgroundImageFix" result="effect1_dropShadow_1_2102"/>
<feColorMatrix in="SourceAlpha" type="matrix" values="0 0 0 0 0 0 0 0 0 0 0 0 0 0 0 0 0 0 127 0" result="hardAlpha"/>
<feOffset dy="1"/>
<feGaussianBlur stdDeviation="1.5"/>
<feColorMatrix type="matrix" values="0 0 0 0 0.0627451 0 0 0 0 0.0941176 0 0 0 0 0.156863 0 0 0 0.1 0"/>
<feBlend mode="normal" in2="effect1_dropShadow_1_2102" result="effect2_dropShadow_1_2102"/>
<feBlend mode="normal" in="SourceGraphic" in2="effect2_dropShadow_1_2102" result="shape"/>
</filter>
<filter id="filter2_dd_1_2102" x="361" y="0" width="106" height="86" filterUnits="userSpaceOnUse" color-interpolation-filters="sRGB">
<feFlood flood-opacity="0" result="BackgroundImageFix"/>
<feColorMatrix in="SourceAlpha" type="matrix" values="0 0 0 0 0 0 0 0 0 0 0 0 0 0 0 0 0 0 127 0" result="hardAlpha"/>
<feOffset dy="1"/>
<feGaussianBlur stdDeviation="1"/>
<feColorMatrix type="matrix" values="0 0 0 0 0.0627451 0 0 0 0 0.0941176 0 0 0 0 0.156863 0 0 0 0.06 0"/>
<feBlend mode="normal" in2="BackgroundImageFix" result="effect1_dropShadow_1_2102"/>
<feColorMatrix in="SourceAlpha" type="matrix" values="0 0 0 0 0 0 0 0 0 0 0 0 0 0 0 0 0 0 127 0" result="hardAlpha"/>
<feOffset dy="1"/>
<feGaussianBlur stdDeviation="1.5"/>
<feColorMatrix type="matrix" values="0 0 0 0 0.0627451 0 0 0 0 0.0941176 0 0 0 0 0.156863 0 0 0 0.1 0"/>
<feBlend mode="normal" in2="effect1_dropShadow_1_2102" result="effect2_dropShadow_1_2102"/>
<feBlend mode="normal" in="SourceGraphic" in2="effect2_dropShadow_1_2102" result="shape"/>
</filter>
</defs>
</svg>
