<svg width="24" height="24" viewBox="0 0 24 24" fill="none" xmlns="http://www.w3.org/2000/svg">
<g clip-path="url(#clip0_1_8143)">
<path d="M9.83206 17.3689L9.83189 17.3696C9.652 18.1641 8.87237 18.6671 8.07689 18.5096C8.07683 18.5096 8.07678 18.5096 8.07672 18.5095L3.96935 17.6901C3.96916 17.69 3.96896 17.69 3.96876 17.69C3.70014 17.6349 3.52456 17.3695 3.57949 17.0998L3.58955 17.0504V17.0192C3.66151 16.7735 3.91359 16.6179 4.16957 16.6699C4.16963 16.6699 4.16969 16.6699 4.16975 16.67L8.08957 17.4699L8.58257 17.5705L8.68007 17.0769L10.2801 8.9769L10.4564 8.0842L9.60833 8.41401L7.80833 9.11401L7.48955 9.23798V9.58001V11.98C7.48955 12.2539 7.26341 12.48 6.98955 12.48C6.71569 12.48 6.48955 12.2539 6.48955 11.98V9.61001C6.48955 9.00256 6.848 8.46196 7.40615 8.21974L11.2984 6.57678C11.4502 6.56784 11.5784 6.54217 11.6774 6.52235L11.6876 6.5203C11.8149 6.49485 11.8951 6.48001 11.9896 6.48001C12.4808 6.48001 12.9383 6.75765 13.2696 7.25155L14.2601 8.83631C15.0087 10.1478 16.3989 11.1304 18.0584 11.4034L18.059 11.4035C18.3174 11.4457 18.4896 11.6553 18.4896 11.89C18.4896 12.205 18.2116 12.4373 17.926 12.3959C16.3035 12.134 14.8606 11.3035 13.8681 10.1534L13.1999 9.37895L12.9993 10.382L12.3993 13.382L12.3452 13.652L12.5447 13.842L14.0247 15.252L14.0252 15.2525C14.3245 15.5369 14.4896 15.9253 14.4896 16.34V21.98C14.4896 22.2539 14.2634 22.48 13.9896 22.48C13.7157 22.48 13.4896 22.2539 13.4896 21.98V16.98V16.7657L13.3344 16.6179L11.2344 14.6179L10.5976 14.0114L10.4021 14.8689L9.83206 17.3689ZM14.9896 3.48001C14.9896 4.30387 14.3134 4.98001 13.4896 4.98001C12.6657 4.98001 11.9896 4.30387 11.9896 3.48001C11.9896 2.65615 12.6657 1.98001 13.4896 1.98001C14.3134 1.98001 14.9896 2.65615 14.9896 3.48001Z" fill="#4959B6" stroke="#4959B6"/>
</g>
<defs>
<clipPath id="clip0_1_8143">
<rect width="24" height="24" fill="white"/>
</clipPath>
</defs>
</svg>
