<svg width="74" height="24" viewBox="0 0 74 24" fill="none" xmlns="http://www.w3.org/2000/svg">
<g clip-path="url(#clip0_1_1926)">
<path d="M12 23.0769C18.1176 23.0769 23.0769 18.1176 23.0769 12C23.0769 5.88238 18.1176 0.923077 12 0.923077C5.8824 0.923077 0.923096 5.88238 0.923096 12C0.923096 18.1176 5.8824 23.0769 12 23.0769Z" stroke="#657286" stroke-width="2" stroke-miterlimit="10" stroke-linecap="round" stroke-linejoin="round"/>
<path d="M12 15.1385C14.1411 15.1385 15.8769 13.4027 15.8769 11.2615C15.8769 9.12037 14.1411 7.38462 12 7.38462C9.8588 7.38462 8.12305 9.12037 8.12305 11.2615C8.12305 13.4027 9.8588 15.1385 12 15.1385Z" stroke="#657286" stroke-width="2" stroke-miterlimit="10" stroke-linecap="round" stroke-linejoin="round"/>
<path d="M5.72314 20.8615C5.72314 17.6308 8.58468 15.0462 12.0001 15.0462C15.4155 15.0462 18.277 17.6308 18.277 20.8615" stroke="#657286" stroke-width="2" stroke-miterlimit="10" stroke-linecap="round" stroke-linejoin="round"/>
</g>
<path d="M37.5567 17.098C36.642 17.098 35.802 16.8833 35.0367 16.454C34.2714 16.0247 33.6647 15.432 33.2167 14.676C32.7687 13.9107 32.5447 13.0473 32.5447 12.086C32.5447 11.134 32.7687 10.28 33.2167 9.524C33.6647 8.75867 34.2714 8.16133 35.0367 7.732C35.802 7.30267 36.642 7.088 37.5567 7.088C38.4807 7.088 39.3207 7.30267 40.0767 7.732C40.842 8.16133 41.444 8.75867 41.8827 9.524C42.3307 10.28 42.5547 11.134 42.5547 12.086C42.5547 13.0473 42.3307 13.9107 41.8827 14.676C41.444 15.432 40.842 16.0247 40.0767 16.454C39.3114 16.8833 38.4714 17.098 37.5567 17.098ZM37.5567 15.348C38.1447 15.348 38.6627 15.2173 39.1107 14.956C39.5587 14.6853 39.9087 14.3027 40.1607 13.808C40.4127 13.3133 40.5387 12.7393 40.5387 12.086C40.5387 11.4327 40.4127 10.8633 40.1607 10.378C39.9087 9.88333 39.5587 9.50533 39.1107 9.244C38.6627 8.98267 38.1447 8.852 37.5567 8.852C36.9687 8.852 36.446 8.98267 35.9887 9.244C35.5407 9.50533 35.1907 9.88333 34.9387 10.378C34.6867 10.8633 34.5607 11.4327 34.5607 12.086C34.5607 12.7393 34.6867 13.3133 34.9387 13.808C35.1907 14.3027 35.5407 14.6853 35.9887 14.956C36.446 15.2173 36.9687 15.348 37.5567 15.348ZM46.9809 17.126C46.3462 17.126 45.7769 17.014 45.2729 16.79C44.7689 16.5567 44.3675 16.244 44.0689 15.852C43.7795 15.46 43.6209 15.026 43.5929 14.55H45.5669C45.6042 14.8487 45.7489 15.096 46.0009 15.292C46.2622 15.488 46.5842 15.586 46.9669 15.586C47.3402 15.586 47.6295 15.5113 47.8349 15.362C48.0495 15.2127 48.1569 15.0213 48.1569 14.788C48.1569 14.536 48.0262 14.3493 47.7649 14.228C47.5129 14.0973 47.1069 13.9573 46.5469 13.808C45.9682 13.668 45.4922 13.5233 45.1189 13.374C44.7549 13.2247 44.4375 12.996 44.1669 12.688C43.9055 12.38 43.7749 11.9647 43.7749 11.442C43.7749 11.0127 43.8962 10.6207 44.1389 10.266C44.3909 9.91133 44.7455 9.63133 45.2029 9.426C45.6695 9.22067 46.2155 9.118 46.8409 9.118C47.7649 9.118 48.5022 9.35133 49.0529 9.818C49.6035 10.2753 49.9069 10.896 49.9629 11.68H48.0869C48.0589 11.372 47.9282 11.1293 47.6949 10.952C47.4709 10.7653 47.1675 10.672 46.7849 10.672C46.4302 10.672 46.1549 10.7373 45.9589 10.868C45.7722 10.9987 45.6789 11.1807 45.6789 11.414C45.6789 11.6753 45.8095 11.876 46.0709 12.016C46.3322 12.1467 46.7382 12.282 47.2889 12.422C47.8489 12.562 48.3109 12.7067 48.6749 12.856C49.0389 13.0053 49.3515 13.2387 49.6129 13.556C49.8835 13.864 50.0235 14.2747 50.0329 14.788C50.0329 15.236 49.9069 15.6373 49.6549 15.992C49.4122 16.3467 49.0575 16.6267 48.5909 16.832C48.1335 17.028 47.5969 17.126 46.9809 17.126ZM56.2338 17L53.6018 13.696V17H51.6418V6.64H53.6018V12.534L56.2058 9.244H58.7538L55.3378 13.136L58.7818 17H56.2338ZM59.3136 13.094C59.3136 12.31 59.4676 11.6147 59.7756 11.008C60.0929 10.4013 60.5176 9.93467 61.0496 9.608C61.5909 9.28133 62.1929 9.118 62.8556 9.118C63.4342 9.118 63.9382 9.23467 64.3676 9.468C64.8062 9.70133 65.1562 9.99533 65.4176 10.35V9.244H67.3916V17H65.4176V15.866C65.1656 16.23 64.8156 16.5333 64.3676 16.776C63.9289 17.0093 63.4202 17.126 62.8416 17.126C62.1882 17.126 61.5909 16.958 61.0496 16.622C60.5176 16.286 60.0929 15.8147 59.7756 15.208C59.4676 14.592 59.3136 13.8873 59.3136 13.094ZM65.4176 13.122C65.4176 12.646 65.3242 12.24 65.1376 11.904C64.9509 11.5587 64.6989 11.2973 64.3816 11.12C64.0642 10.9333 63.7236 10.84 63.3596 10.84C62.9956 10.84 62.6596 10.9287 62.3516 11.106C62.0436 11.2833 61.7916 11.5447 61.5956 11.89C61.4089 12.226 61.3156 12.6273 61.3156 13.094C61.3156 13.5607 61.4089 13.9713 61.5956 14.326C61.7916 14.6713 62.0436 14.9373 62.3516 15.124C62.6689 15.3107 63.0049 15.404 63.3596 15.404C63.7236 15.404 64.0642 15.3153 64.3816 15.138C64.6989 14.9513 64.9509 14.69 65.1376 14.354C65.3242 14.0087 65.4176 13.598 65.4176 13.122ZM71.2658 10.448C71.5178 10.0373 71.8445 9.71533 72.2458 9.482C72.6565 9.24867 73.1232 9.132 73.6458 9.132V11.19H73.1278C72.5118 11.19 72.0452 11.3347 71.7278 11.624C71.4198 11.9133 71.2658 12.4173 71.2658 13.136V17H69.3058V9.244H71.2658V10.448Z" fill="#657286"/>
<defs>
<clipPath id="clip0_1_1926">
<rect width="24" height="24" fill="white"/>
</clipPath>
</defs>
</svg>
