<svg width="140" height="32" viewBox="0 0 140 32" fill="none" xmlns="http://www.w3.org/2000/svg">
<path d="M20.5303 19.9255L23.0362 21.2745L23.0363 21.2793C22.4281 22.4073 21.5849 23.3906 20.5641 24.1621C19.5433 24.9337 18.3689 25.4755 17.1208 25.7506C15.8728 26.0257 14.5803 26.0277 13.3314 25.7564C12.0824 25.4851 10.9064 24.947 9.88327 24.1785C9.40664 23.813 8.83123 23.6003 8.23225 23.5682C7.63328 23.5361 7.03859 23.6862 6.52594 23.9988C6.50788 24.01 6.48979 24.0211 6.47166 24.0321C6.05471 24.2862 5.70617 24.639 5.45658 25.0596C5.20698 25.4803 5.06394 25.956 5.03998 26.445C5.01602 26.934 5.11187 27.4214 5.31914 27.8646C5.52641 28.3079 5.83877 28.6933 6.22887 28.9872C8.05844 30.3697 10.1803 31.3111 12.4304 31.7386C14.6805 32.1661 16.9984 32.0682 19.2047 31.4526C21.4111 30.8369 23.4467 29.72 25.1542 28.1881C26.8616 26.6563 28.1951 24.7507 29.0513 22.6188L31.882 23.25L29.8363 20.0197L27.4884 16.3191" fill="#40C887"/>
<path d="M26.9021 6.03628C24.7331 3.11176 21.5761 1.0814 18.0228 0.325559C14.4694 -0.430286 10.7634 0.140244 7.59906 1.93027C4.43468 3.72029 2.02905 6.607 0.832804 10.0496C-0.363437 13.4922 -0.268205 17.2545 1.10066 20.6317C1.37266 21.3064 1.88556 21.855 2.5391 22.1704C3.19264 22.4857 3.93985 22.5451 4.63467 22.3369C4.73441 22.3052 4.83421 22.2736 4.93133 22.2393C5.30779 22.1028 5.65278 21.8911 5.94544 21.6171C6.23811 21.343 6.47238 21.0122 6.63411 20.6446C6.79583 20.2771 6.88165 19.8805 6.88637 19.4787C6.8911 19.077 6.81463 18.6784 6.6616 18.3072C6.14678 17.0276 5.9364 15.6451 6.04719 14.2696C6.18234 12.5726 6.79734 10.9496 7.81989 9.59139C8.84244 8.23319 10.23 7.19626 11.8196 6.60251C13.4091 6.00876 15.1344 5.88286 16.7928 6.23962C18.4511 6.59638 19.9735 7.42097 21.181 8.61644L16.2817 10.8329C16.1235 10.8882 15.9705 10.9579 15.8249 11.0411C15.16 11.412 14.662 12.0246 14.4334 12.7528C14.2048 13.481 14.263 14.2695 14.596 14.956C14.9291 15.6425 15.5116 16.1747 16.2237 16.4431C16.9358 16.7116 17.7233 16.6958 18.4242 16.3991L23.7777 13.9823L29.4305 11.4259C28.9537 9.47828 28.094 7.6459 26.9021 6.03628V6.03628Z" fill="#97A7FF"/>
<path d="M52.767 25.1334C51.9344 25.8496 50.9937 26.4284 49.98 26.8482C48.9241 27.2736 47.795 27.486 46.6572 27.4731C45.3845 27.4793 44.1237 27.2272 42.9506 26.732C40.6453 25.7726 38.7968 23.9587 37.7889 21.667C37.2685 20.4891 37.0045 19.2133 37.0146 17.9248C37.0103 16.2594 37.4314 14.6206 38.2378 13.1651C38.629 12.4624 39.1083 11.8128 39.664 11.2323C40.7899 10.0508 42.2132 9.19704 43.7832 8.76155C44.6154 8.5304 45.4753 8.41549 46.3387 8.42008C47.0708 8.41995 47.8001 8.51023 48.5103 8.68888C49.2151 8.86476 49.8976 9.12075 50.5446 9.45188C51.1882 9.78264 51.7929 10.1848 52.3472 10.6509C52.9036 11.1174 53.3997 11.652 53.8239 12.2422C54.395 13.0397 54.826 13.9294 55.0982 14.8727C55.3785 15.8901 55.515 16.9419 55.5035 17.9974C55.5058 18.2329 55.4937 18.4683 55.4672 18.7023C55.4519 18.8692 55.3891 19.0281 55.2862 19.1601C55.171 19.2878 55.0193 19.3766 54.8519 19.4144C54.5862 19.4755 54.3137 19.5024 54.0412 19.4943H41.1988C41.3095 20.1545 41.5533 20.785 41.9154 21.3473C42.2536 21.87 42.677 22.3319 43.1679 22.7136C43.6424 23.0824 44.176 23.3675 44.7459 23.5564C45.2966 23.7422 45.8735 23.8379 46.4544 23.8398C46.8754 23.8412 47.2953 23.7973 47.7069 23.709C48.0906 23.6271 48.4662 23.5103 48.8289 23.3602C49.1637 23.2214 49.4859 23.0536 49.7918 22.8587C50.0662 22.6851 50.3254 22.4882 50.5664 22.2701C50.5661 22.2682 50.5663 22.2661 50.5669 22.2642C50.5676 22.2624 50.5686 22.2606 50.57 22.2592C50.5714 22.2578 50.5731 22.2567 50.575 22.2561C50.5769 22.2555 50.5789 22.2553 50.5809 22.2556C50.6829 22.1597 50.7944 22.0745 50.9137 22.0013C51.0141 21.9401 51.1293 21.9074 51.2468 21.9069C51.3512 21.9118 51.453 21.9416 51.5436 21.994C51.6712 22.067 51.7822 22.166 51.8694 22.2847C52.1299 22.6045 52.352 22.8709 52.5355 23.0841C52.7187 23.2973 52.8683 23.4766 52.9843 23.6219C53.0813 23.7389 53.1662 23.8655 53.2376 23.9997C53.2887 24.0986 53.316 24.2081 53.3174 24.3194C53.3174 24.5909 53.1339 24.8622 52.767 25.1334ZM46.3387 12.0243C45.7692 12.0243 45.2046 12.1302 44.6736 12.3368C44.1385 12.5421 43.6379 12.8289 43.1896 13.187C42.7385 13.5479 42.3433 13.974 42.0167 14.4513C41.6868 14.9295 41.4396 15.4602 41.2856 16.0209H51.5363C51.3891 15.4469 51.1521 14.9 50.8342 14.4005C50.5273 13.9191 50.1434 13.4918 49.6977 13.136C49.242 12.7763 48.7277 12.4985 48.1775 12.3149C47.5846 12.1175 46.9633 12.0193 46.3387 12.0243V12.0243Z" fill="#2E3076"/>
<path d="M57.7905 4.10344C57.7819 3.87753 57.8538 3.65594 57.9933 3.47848C58.0714 3.39231 58.1681 3.32523 58.2761 3.2824C58.384 3.23957 58.5002 3.22212 58.6159 3.23138H61.1496C61.2519 3.23436 61.3526 3.25774 61.4458 3.30017C61.539 3.34259 61.6228 3.4032 61.6925 3.47848C61.7757 3.5592 61.8413 3.65648 61.8849 3.7641C61.9286 3.87171 61.9494 3.98729 61.946 4.10344V26.2957C61.955 26.4156 61.9384 26.536 61.8972 26.6488C61.8559 26.7616 61.7911 26.8643 61.707 26.9498C61.5277 27.1021 61.2973 27.18 61.0628 27.1677H58.6449C58.526 27.1797 58.4059 27.1666 58.2924 27.129C58.1789 27.0915 58.0745 27.0304 57.9861 26.9498C57.8425 26.7636 57.7729 26.5305 57.7905 26.2957L57.7905 4.10344Z" fill="#2E3076"/>
<path d="M80.3482 25.1334C79.5155 25.8496 78.5747 26.4284 77.561 26.8482C76.5051 27.2737 75.3759 27.4861 74.2381 27.4731C72.9656 27.4793 71.7048 27.2272 70.5318 26.732C68.2263 25.7727 66.3778 23.9588 65.3701 21.667C64.8495 20.4892 64.5854 19.2133 64.5955 17.9248C64.5915 16.2594 65.0127 14.6207 65.819 13.1651C66.2101 12.4623 66.6895 11.8127 67.2452 11.2323C67.8007 10.6494 68.4312 10.1435 69.12 9.72798C69.8216 9.30653 70.5764 8.98148 71.3642 8.76155C72.1963 8.5304 73.0562 8.41549 73.9196 8.42008C74.6518 8.41993 75.3812 8.51021 76.0915 8.68888C76.7962 8.86477 77.4786 9.12075 78.1256 9.45188C78.7693 9.78253 79.3739 10.1847 79.9281 10.6509C80.4846 11.1174 80.9808 11.652 81.4051 12.2422C81.9762 13.0397 82.4071 13.9293 82.6791 14.8727C82.9597 15.89 83.0962 16.9419 83.0847 17.9974C83.087 18.2329 83.0749 18.4683 83.0484 18.7023C83.0331 18.8692 82.9702 19.0281 82.8674 19.1601C82.7521 19.2877 82.6004 19.3764 82.4331 19.4144C82.1672 19.4755 81.8947 19.5024 81.6222 19.4943H68.7797C68.8905 20.1545 69.1344 20.785 69.4966 21.3473C69.8348 21.8699 70.2581 22.3318 70.7488 22.7136C71.2235 23.0824 71.7572 23.3674 72.3271 23.5564C72.8778 23.7422 73.4547 23.8379 74.0356 23.8398C74.4565 23.8412 74.8763 23.7974 75.2878 23.709C75.6717 23.6271 76.0473 23.5103 76.41 23.3602C76.7448 23.2214 77.0669 23.0536 77.3727 22.8587C77.6472 22.6851 77.9063 22.4882 78.1473 22.2701C78.1471 22.2682 78.1473 22.2662 78.1479 22.2643C78.1485 22.2624 78.1496 22.2607 78.151 22.2593C78.1524 22.2579 78.1541 22.2568 78.156 22.2562C78.1579 22.2555 78.1599 22.2553 78.1618 22.2556C78.2639 22.1596 78.3755 22.0744 78.4949 22.0013C78.5953 21.9401 78.7104 21.9074 78.8279 21.9069C78.9324 21.9118 79.0341 21.9417 79.1247 21.994C79.2523 22.0671 79.3633 22.1661 79.4506 22.2847C79.7111 22.6045 79.9331 22.8709 80.1164 23.0841C80.2996 23.2973 80.4492 23.4766 80.5653 23.6219C80.6623 23.7389 80.7473 23.8655 80.8188 23.9997C80.8698 24.0986 80.8971 24.2081 80.8983 24.3194C80.8983 24.5909 80.7149 24.8622 80.3482 25.1334ZM73.9196 12.0243C73.3501 12.0243 72.7856 12.1302 72.2546 12.3368C71.7194 12.5421 71.2189 12.8289 70.7706 13.187C70.3195 13.5479 69.9243 13.974 69.5978 14.4513C69.2677 14.9294 69.0206 15.4601 68.8667 16.0209H79.1175C78.9703 15.4468 78.7332 14.8999 78.4151 14.4005C78.1083 13.9191 77.7243 13.4918 77.2787 13.136C76.823 12.7762 76.3086 12.4984 75.7584 12.3149C75.1655 12.1174 74.5443 12.0192 73.9196 12.0243V12.0243Z" fill="#2E3076"/>
<path d="M92.235 27.1677C91.5046 27.1632 90.7794 27.0455 90.0848 26.8189C89.4443 26.6126 88.8495 26.284 88.333 25.8513C87.8321 25.4244 87.4295 24.8933 87.1531 24.2948C86.8542 23.6351 86.7058 22.9168 86.7187 22.1923V12.3728H85.0537C84.8279 12.3901 84.6036 12.3232 84.4238 12.1848C84.3468 12.1019 84.2882 12.0036 84.252 11.8962C84.2158 11.7888 84.2028 11.675 84.2138 11.5621V9.47778C84.2025 9.36938 84.2155 9.25981 84.2518 9.15711C84.2881 9.0544 84.3469 8.96116 84.4238 8.88423C84.6076 8.75518 84.8301 8.69381 85.0537 8.71053H86.7187C86.7187 8.19704 86.7212 7.68595 86.726 7.17724C86.7306 6.66862 86.733 6.15752 86.7332 5.64395C86.7288 5.55908 86.7427 5.47425 86.7739 5.39525C86.8051 5.31624 86.8529 5.24492 86.914 5.18615C87.0784 5.05073 87.2679 4.94946 87.4716 4.88822C87.6355 4.83012 87.8334 4.75988 88.0652 4.67752C88.2968 4.59527 88.5356 4.51534 88.7819 4.4377C89.0279 4.36031 89.2668 4.29492 89.4985 4.24155C89.6881 4.1939 89.8822 4.1671 90.0776 4.16161C90.1885 4.14516 90.3017 4.15949 90.4051 4.20305C90.5085 4.24661 90.598 4.31773 90.6639 4.40871C90.7643 4.61147 90.8117 4.83648 90.8017 5.06266C90.8017 5.67306 90.7993 6.28104 90.7944 6.88659C90.7894 7.49227 90.787 8.10025 90.7872 8.71053H92.8721C93.0832 8.69655 93.2914 8.76683 93.4512 8.90607C93.5248 8.98939 93.5808 9.08691 93.6157 9.19267C93.6505 9.29843 93.6636 9.41022 93.6539 9.5212V11.5043C93.6765 11.7445 93.6036 11.9839 93.4512 12.1704C93.3731 12.2413 93.2816 12.2958 93.1821 12.3306C93.0826 12.3654 92.9772 12.3798 92.8721 12.3728H90.7872V15.1306C90.7872 15.4652 90.7896 15.7782 90.7945 16.0693C90.799 16.3605 90.8015 16.6757 90.8017 17.0152V19.7798C90.8016 19.7994 90.7991 19.819 90.7945 19.838C90.7896 19.857 90.7871 19.8766 90.7872 19.8963V21.8027C90.7872 22.4432 90.9126 22.904 91.1635 23.1851C91.4144 23.4665 91.8198 23.6072 92.3797 23.6072C92.4709 23.6031 92.5616 23.6207 92.6447 23.6586C92.7277 23.6964 92.8007 23.7535 92.8576 23.8251C92.9745 23.9737 93.036 24.1588 93.0313 24.3481V26.3686C93.0418 26.4762 93.0285 26.5847 92.9922 26.6865C92.9558 26.7883 92.8975 26.8807 92.8213 26.9571C92.7452 27.0335 92.6531 27.0921 92.5517 27.1285C92.4503 27.1649 92.3421 27.1783 92.235 27.1677H92.235Z" fill="#2E3076"/>
<path d="M96.8977 3.16199C96.8977 2.57864 97.1825 2.28694 97.7521 2.2869H100.185C100.421 2.27544 100.654 2.35353 100.836 2.50573C100.922 2.59049 100.989 2.69315 101.031 2.80651C101.074 2.91987 101.091 3.04119 101.082 3.16199V5.3354C101.079 5.56723 100.997 5.79107 100.85 5.96994C100.774 6.06854 100.674 6.14717 100.561 6.1992C100.448 6.25124 100.323 6.27516 100.199 6.26896H97.7666C97.1873 6.26896 96.8976 5.95777 96.8977 5.3354V3.16199ZM96.8977 9.59707C96.8903 9.36668 96.9676 9.14162 97.115 8.96483C97.1955 8.87731 97.2945 8.80904 97.4048 8.76504C97.515 8.72104 97.6337 8.70242 97.7521 8.71057H100.156C100.267 8.71171 100.378 8.73389 100.481 8.77595C100.591 8.81919 100.692 8.88332 100.778 8.96483C100.865 9.04724 100.938 9.14292 100.995 9.24831C101.053 9.35525 101.083 9.47528 101.082 9.59707V26.2958C101.082 26.8771 100.778 27.1678 100.17 27.1678H97.7666C97.1873 27.1678 96.8976 26.8771 96.8977 26.2958V9.59707Z" fill="#2E3076"/>
<path d="M104.034 9.88766C104.015 9.81027 103.998 9.74233 103.984 9.68423C103.968 9.62193 103.956 9.55884 103.947 9.49524C103.939 9.43755 103.934 9.3793 103.933 9.32093C103.93 9.237 103.946 9.15348 103.98 9.07668C104.014 8.99989 104.065 8.93184 104.129 8.87768C104.298 8.75409 104.506 8.69486 104.715 8.71052H107.321C107.524 8.70129 107.723 8.76295 107.886 8.88496C108.042 9.01708 108.161 9.1872 108.233 9.37903L108.494 10.033C108.687 10.5853 108.906 11.2054 109.152 11.8933C109.399 12.5813 109.652 13.2911 109.913 14.0224C110.173 14.754 110.434 15.4807 110.694 16.2024C110.955 16.9243 111.201 17.6025 111.433 18.237C111.665 18.8717 111.872 19.4337 112.055 19.9229C112.239 20.4123 112.383 20.7877 112.49 21.0491C112.654 20.5746 112.845 20.0296 113.062 19.4142C113.279 18.799 113.513 18.1451 113.764 17.4522C114.015 16.7597 114.271 16.0452 114.531 15.3086C114.792 14.5724 115.048 13.8506 115.299 13.1431C115.55 12.436 115.788 11.7602 116.015 11.1157C116.242 10.4715 116.447 9.88774 116.631 9.36447C116.701 9.16795 116.824 8.99455 116.985 8.86313C117.155 8.75287 117.355 8.69944 117.557 8.71052H120.265C120.48 8.68827 120.697 8.73946 120.88 8.85586C120.934 8.90234 120.977 8.96042 121.006 9.02581C121.035 9.0912 121.049 9.16225 121.047 9.23372C121.044 9.33156 121.032 9.42892 121.01 9.52437C120.993 9.61269 120.972 9.70004 120.945 9.78602L114.053 26.5864C113.973 26.7265 113.878 26.858 113.771 26.9787C113.687 27.0512 113.589 27.1054 113.483 27.1379C113.377 27.1704 113.266 27.1806 113.156 27.1677H111.824C111.575 27.1969 111.325 27.1322 111.121 26.986C111.006 26.8726 110.915 26.7366 110.854 26.5864L104.034 9.88766Z" fill="#2E3076"/>
<path d="M137.263 25.1334C136.43 25.8496 135.489 26.4284 134.476 26.8482C133.42 27.2737 132.291 27.4861 131.153 27.4731C129.88 27.4793 128.62 27.2272 127.446 26.732C125.141 25.7727 123.292 23.9588 122.285 21.667C121.764 20.4892 121.5 19.2133 121.51 17.9248C121.506 16.2594 121.927 14.6207 122.734 13.1651C123.125 12.4623 123.604 11.8127 124.16 11.2323C124.715 10.6494 125.346 10.1435 126.035 9.72798C126.736 9.30653 127.491 8.98148 128.279 8.76155C129.111 8.5304 129.971 8.41549 130.834 8.42008C131.566 8.41993 132.296 8.51021 133.006 8.68888C133.711 8.86477 134.393 9.12075 135.04 9.45188C135.684 9.78253 136.289 10.1847 136.843 10.6509C137.399 11.1174 137.896 11.652 138.32 12.2422C138.891 13.0397 139.322 13.9293 139.594 14.8727C139.874 15.89 140.011 16.9419 139.999 17.9974C140.002 18.2329 139.99 18.4683 139.963 18.7023C139.948 18.8692 139.885 19.0281 139.782 19.1601C139.667 19.2877 139.515 19.3765 139.348 19.4144C139.082 19.4755 138.809 19.5024 138.537 19.4943H125.694C125.805 20.1545 126.049 20.785 126.411 21.3473C126.749 21.8699 127.173 22.3318 127.663 22.7136C128.138 23.0824 128.672 23.3674 129.242 23.5564C129.792 23.7422 130.369 23.8379 130.95 23.8398C131.371 23.8412 131.791 23.7974 132.203 23.709C132.586 23.6271 132.962 23.5103 133.325 23.3602C133.66 23.2214 133.982 23.0536 134.287 22.8587C134.562 22.6851 134.821 22.4882 135.062 22.2701C135.062 22.2682 135.062 22.2662 135.063 22.2643C135.063 22.2624 135.064 22.2607 135.066 22.2593C135.067 22.2579 135.069 22.2568 135.071 22.2562C135.073 22.2555 135.075 22.2553 135.077 22.2556C135.179 22.1596 135.29 22.0744 135.41 22.0013C135.51 21.9401 135.625 21.9074 135.743 21.9069C135.847 21.9118 135.949 21.9417 136.039 21.994C136.167 22.0671 136.278 22.1661 136.365 22.2847C136.626 22.6045 136.848 22.8709 137.031 23.0841C137.214 23.2973 137.364 23.4766 137.48 23.6219C137.577 23.7389 137.662 23.8655 137.733 23.9997C137.785 24.0986 137.812 24.2081 137.813 24.3194C137.813 24.5909 137.63 24.8622 137.263 25.1334ZM130.834 12.0243C130.265 12.0243 129.7 12.1302 129.169 12.3368C128.634 12.5421 128.134 12.8289 127.685 13.187C127.234 13.5479 126.839 13.974 126.513 14.4513C126.182 14.9294 125.935 15.4601 125.781 16.0209H136.032C135.885 15.4468 135.648 14.8999 135.33 14.4005C135.023 13.9191 134.639 13.4918 134.193 13.136C133.738 12.7762 133.223 12.4984 132.673 12.3149C132.08 12.1174 131.459 12.0192 130.834 12.0243V12.0243Z" fill="#2E3076"/>
</svg>
